<svg class="svg-icon" style="width: 1em;height: 1em;vertical-align: middle;fill: currentColor;overflow: hidden;" viewBox="0 0 1024 1024" version="1.1" xmlns="http://www.w3.org/2000/svg"><path d="M629.333333 111.54963a242.631111 242.631111 0 0 0-96.379259-30.008889c-76.231111-6.826667-159.573333 23.703704-203.851852 87.798518-26.405926 38.352593-40.296296 84.527407-44.61037 130.56a313.552593 313.552593 0 0 0 13.89037 128.948148 260.02963 260.02963 0 0 0 42.666667 77.700741 267.425185 267.425185 0 0 0 29.534815 31.715556c6.731852 6.115556 27.448889 18.962963 30.435555 26.548148-21.428148-54.992593-37.925926-111.786667-42.666666-170.951111a367.312593 367.312593 0 0 1-0.663704-51.57926s19.768889-191.288889 158.577778-240.829629C654.791111 150.992593 668.444444 342.281481 668.444444 342.281481a367.312593 367.312593 0 0 1-0.663703 51.57926c-4.740741 59.164444-21.143704 115.958519-42.666667 170.951111 3.034074-7.727407 23.703704-20.432593 30.435556-26.548148a263.537778 263.537778 0 0 0 29.534814-31.715556 258.986667 258.986667 0 0 0 42.42963-77.700741 315.591111 315.591111 0 0 0 12.420741-142.222222c-6.921481-51.579259-27.06963-108.278519-66.370371-143.691852a242.488889 242.488889 0 0 0-44.231111-31.383703z" fill="#54393A" /><path d="M430.364444 544.853333h164.361482v234.808889H430.364444z" fill="#FFCEAA" /><path d="M429.89037 537.362963l0.474074 59.259259c20.574815 26.500741 68.077037 45.037037 123.25926 45.037037a227.271111 227.271111 0 0 0 41.197037-5.546666V528.118519h-155.496297a79.312593 79.312593 0 0 0-9.434074 9.244444z" fill="#FFB888" /><path d="M340.148148 374.518519c-14.980741 1.564444-29.866667 10.666667-27.401481 41.671111 0 0-2.180741 43.851852 36.693333 55.656296a261.12 261.12 0 0 1-10.382222-73.102222c0-8.343704 0.379259-16.402963 1.09037-24.225185zM684.562963 374.518519a266.619259 266.619259 0 0 1-7.585185 96.853333c37.451852-12.420741 35.365926-55.182222 35.365926-55.182222 2.465185-31.383704-12.61037-40.391111-27.780741-41.671111z" fill="#FFCEAA" /><path d="M684.041481 374.518519c-11.235556-111.265185-88.841481-197.499259-171.567407-197.49926-83.531852-0.142222-162.74963 84.859259-172.847407 197.49926a271.976296 271.976296 0 0 0-1.090371 24.225185A261.12 261.12 0 0 0 348.918519 471.703704c25.41037 86.945185 93.961481 147.484444 164.882962 147.484444 71.822222 0 138.951111-59.97037 162.654815-147.958518a267.235556 267.235556 0 0 0 9.007408-69.262223c0-9.339259-0.521481-18.536296-1.422223-27.448888z" fill="#FBD5B9" /><path d="M406.234074 362.24a46.08 46.08 0 0 1 17.256296-12.894815 53.522963 53.522963 0 0 1 21.475556-4.740741 48.971852 48.971852 0 0 1 21.617778 4.740741 46.222222 46.222222 0 0 1 16.971852 12.894815c-3.555556-0.948148-6.637037-2.465185-9.955556-3.413333s-6.352593-2.085926-9.481481-2.654815a76.657778 76.657778 0 0 0-18.962963-2.085926 91.828148 91.828148 0 0 0-18.962963 2.228148 169.813333 169.813333 0 0 0-19.958519 5.925926zM540.444444 362.24a46.08 46.08 0 0 1 17.256297-12.894815 53.76 53.76 0 0 1 21.522963-4.740741 48.924444 48.924444 0 0 1 21.57037 4.740741 45.842963 45.842963 0 0 1 17.161482 13.037037c-3.555556-0.948148-6.637037-2.465185-9.908149-3.413333s-6.4-2.085926-9.481481-2.654815a77.131852 77.131852 0 0 0-18.962963-2.085926 92.254815 92.254815 0 0 0-19.247407 2.228148 169.813333 169.813333 0 0 0-19.911112 5.783704z" fill="#54393A" /><path d="M511.241481 481.943704a23.22963 23.22963 0 0 1-12.183703-2.93926 16.355556 16.355556 0 0 1-5.12-20.811851c8.722963-18.299259 7.111111-36.551111 5.404444-55.893334v-2.702222l4.740741-0.426667v2.74963c1.754074 19.958519 3.413333 38.826667-5.831111 58.311111a11.662222 11.662222 0 0 0 3.271111 14.743704c6.637037 4.02963 18.725926 1.848889 27.022222-1.232593l1.659259 4.456297a58.88 58.88 0 0 1-18.962963 3.745185z" fill="#E6A996" /><path d="M435.816296 414.672593a24.651852 9.14963 90 1 0 18.29926 0 24.651852 9.14963 90 1 0-18.29926 0Z" fill="#54393A" /><path d="M440.367407 399.928889a2.275556 1.896296 0 1 0 4.551112 0 2.275556 1.896296 0 1 0-4.551112 0Z" fill="#FFFFFF" /><path d="M569.884444 414.672593a24.651852 9.14963 90 1 0 18.29926 0 24.651852 9.14963 90 1 0-18.29926 0Z" fill="#54393A" /><path d="M574.435556 399.928889a2.275556 1.896296 0 1 0 4.551111 0 2.275556 1.896296 0 1 0-4.551111 0Z" fill="#FFFFFF" /><path d="M504.367407 545.46963a50.346667 50.346667 0 0 1-22.66074-4.740741l2.275555-4.171852c0.995556 0.521481 24.414815 12.705185 55.940741-6.637037l2.465185 4.077037a72.438519 72.438519 0 0 1-38.020741 11.472593z" fill="#E6A996" /><path d="M594.583704 640h-0.426667v0.758519l-27.354074 37.167407c-33.706667 33.517037-75.093333 32.568889-108.278519-2.56L431.407407 641.564444v-1.611851h-1.042963c-171.235556 10.382222-323.697778 143.36-323.697777 304.734814v6.352593h810.998518v-6.21037c0-161.09037-152.272593-293.973333-323.081481-304.82963z" fill="#FFCEAA" /><path d="M510.340741 97.943704s-144.687407 1.232593-152.177778 235.377777h48.071111l9.481482-24.888888 11.709629 24.983703h20.906667l1.185185-3.318518c8.675556-38.257778 13.748148-51.484444 29.297778-76.847408h-23.703704l29.62963 80.165926h23.087407l21.854815-30.53037 23.22963 30.53037h28.444444l23.703704-42.24s9.007407 27.922963 13.748148 43.567408c15.312593 0 47.407407-1.185185 50.10963 1.374815 11.52 10.761481 7.774815 19.816296 10.382222 28.728888 0.568889-0.094815 30.577778-209.635556-168.96-266.903703z" fill="#54393A" /><path d="M648.533333 289.185185s47.407407 110.459259 32.426667 161.754074c0 0 33.848889-80.592593-7.86963-146.962963S648.533333 289.185185 648.533333 289.185185z" fill="#54393A" /><path d="M341.57037 374.518519c-0.900741 9.054815-1.422222 18.251852-1.422222 27.591111a267.235556 267.235556 0 0 0 9.007408 69.262222c-37.404444-12.420741-35.365926-55.182222-35.365926-55.182222-2.465185-31.383704 12.657778-40.391111 27.78074-41.671111z" fill="#FFCEAA" /><path d="M377.6 289.185185S329.955556 399.834074 345.173333 451.128889c0 0-33.848889-80.592593 7.917037-146.962963S377.6 289.185185 377.6 289.185185z" fill="#54393A" /><path d="M701.297778 663.419259c-44.325926 28.965926-112.64 47.407407-189.297778 47.407408s-144.971852-18.583704-189.345185-47.407408c-122.785185 46.317037-216.32 155.117037-216.32 281.457778v6.352593h811.33037v-6.4c0-126.245926-93.62963-235.045926-216.367407-281.410371z" fill="#3B324E" /><path d="M512 745.244444c95.099259 0 177.303704-28.444444 216.888889-70.115555a373.191111 373.191111 0 0 0-27.591111-11.70963c-44.325926 28.965926-112.64 47.407407-189.297778 47.407408s-144.971852-18.583704-189.345185-47.407408q-14.222222 5.357037-27.591111 11.757037c39.585185 41.481481 121.837037 70.068148 216.936296 70.068148z" fill="#F9AF3F" /></svg>