<svg class="svg-icon" style="width: 1em;height: 1em;vertical-align: middle;fill: currentColor;overflow: hidden;" viewBox="0 0 1024 1024" version="1.1" xmlns="http://www.w3.org/2000/svg"><path d="M594.773333 619.899259v-95.241481H430.411852v95.336296c-171.377778 10.097778-324.077037 143.265185-324.077037 304.687407v6.352593h811.33037v-6.352593c0-160.995556-152.177778-293.878519-322.891852-304.782222z" fill="#FFCEAA" /><path d="M430.411852 524.61037h164.361481v234.808889H430.411852z" fill="#FFCEAA" /><path d="M429.985185 517.12l0.711111 59.354074c20.574815 26.453333 67.792593 44.894815 122.88 44.894815a231.537778 231.537778 0 0 0 41.197037-5.499259v-107.994074H439.371852a75.425185 75.425185 0 0 0-9.386667 9.244444z" fill="#FFB888" /><path d="M684.041481 354.085926C672.805926 242.820741 595.2 156.444444 512.474074 156.444444c-83.531852 0-162.74963 85.333333-172.847407 197.688889-0.711111 7.917037-1.09037 16.023704-1.090371 24.177778a260.740741 260.740741 0 0 0 10.382223 73.102222c25.41037 86.992593 93.961481 147.484444 164.882962 147.484445 71.822222 0 138.951111-59.922963 162.654815-147.958519a266.951111 266.951111 0 0 0 9.007408-69.262222c0-9.339259-0.521481-18.536296-1.422223-27.591111z" fill="#FBD5B9" /><path d="M405.001481 341.94963a45.985185 45.985185 0 0 1 17.256297-12.847408 52.954074 52.954074 0 0 1 21.522963-4.740741 48.877037 48.877037 0 0 1 21.57037 4.740741 46.838519 46.838519 0 0 1 17.161482 13.037037c-3.555556-0.948148-6.637037-2.417778-9.908149-3.365926a94.151111 94.151111 0 0 0-9.481481-2.654814 74.951111 74.951111 0 0 0-18.962963-2.085926 89.173333 89.173333 0 0 0-19.247407 2.228148 169.339259 169.339259 0 0 0-19.911112 5.688889zM539.06963 341.94963a45.605926 45.605926 0 0 1 17.256296-12.847408 52.764444 52.764444 0 0 1 21.475555-4.740741 48.924444 48.924444 0 0 1 21.617778 4.740741 47.075556 47.075556 0 0 1 17.114074 13.037037c-3.555556-0.948148-6.58963-2.417778-9.908148-3.365926a90.927407 90.927407 0 0 0-9.481481-2.654814 74.951111 74.951111 0 0 0-18.962963-2.085926 89.505185 89.505185 0 0 0-19.247408 2.228148 168.675556 168.675556 0 0 0-19.863703 5.688889z" fill="#54393A" /><path d="M510.008889 461.700741a23.04 23.04 0 0 1-12.136296-2.93926 16.308148 16.308148 0 0 1-5.12-20.859259c8.675556-18.299259 7.111111-36.551111 5.404444-55.845926v-2.749629l4.740741-0.37926v2.702223c1.706667 20.005926 3.365926 38.874074-5.878519 58.311111a11.70963 11.70963 0 0 0 3.318519 14.743703c6.58963 4.077037 18.678519 1.896296 27.022222-1.185185l1.659259 4.408889a57.742222 57.742222 0 0 1-19.01037 3.792593z" fill="#E6A996" /><path d="M434.631111 394.382222a24.651852 9.14963 90 1 0 18.299259 0 24.651852 9.14963 90 1 0-18.299259 0Z" fill="#54393A" /><path d="M439.182222 379.685926a2.275556 1.896296 0 1 0 4.551111 0 2.275556 1.896296 0 1 0-4.551111 0Z" fill="#FFFFFF" /><path d="M568.651852 394.382222a24.651852 9.14963 90 1 0 18.299259 0 24.651852 9.14963 90 1 0-18.299259 0Z" fill="#54393A" /><path d="M573.202963 379.685926a2.275556 1.896296 0 1 0 4.551111 0 2.275556 1.896296 0 1 0-4.551111 0Z" fill="#FFFFFF" /><path d="M503.182222 525.226667a50.346667 50.346667 0 0 1-22.660741-4.740741l2.275556-4.171852c0.948148 0.521481 24.367407 12.705185 55.893333-6.637037l2.465186 4.02963a71.964444 71.964444 0 0 1-37.973334 11.52z" fill="#E6A996" /><path d="M777.14963 396.515556C764.965926 290.37037 715.851852 180.148148 620.420741 124.207407c-48.971852-28.444444-109.700741-39.585185-164.835556-24.462222C378.358519 120.888889 320.853333 185.694815 287.336296 256a443.401481 443.401481 0 0 0-38.874074 140.705185c-7.537778 65.659259-7.205926 147.531852 60.871111 181.001482a237.037037 237.037037 0 0 0 57.78963 18.251852c21.001481 4.266667 42.287407 6.874074 63.383704 10.856296 0 0 0.426667-33.185185 0-35.84-3.555556-2.702222-10.571852-7.774815-13.416297-10.477037a294.305185 294.305185 0 0 1-31.383703-34.275556c-14.648889-20.005926-35.602963-60.823704-39.300741-87.087407a91.922963 91.922963 0 0 1 5.167407-33.659259c8.106667-25.315556 14.743704-52.148148 26.358519-76.231112a246.897778 246.897778 0 0 1 49.019259-67.413333c55.561481-7.253333 123.97037 23.703704 142.838519 32.426667 48.355556 21.807407 87.845926 60.065185 104.296296 111.36a90.927407 90.927407 0 0 1 5.167407 33.659259c-3.697778 26.263704-24.651852 67.081481-39.30074 87.087407a290.133333 290.133333 0 0 1-31.478519 33.943704c-2.844444 2.702222-9.860741 7.774815-13.416296 10.477037-0.331852 2.465185 0 35.84 0 35.84 21.096296-3.982222 42.382222-6.58963 63.383703-10.856296a237.037037 237.037037 0 0 0 57.78963-18.251852c68.124444-33.46963 68.456296-115.342222 60.918519-181.001481z" fill="#39334C" /><path d="M339.626667 354.133333c-15.028148 1.517037-29.866667 10.619259-27.448889 41.623704 0 0-2.133333 43.851852 36.740741 55.656296a260.740741 260.740741 0 0 1-10.382223-73.102222c0-8.154074 0.379259-16.260741 1.090371-24.177778zM684.041481 354.085926c0.900741 9.054815 1.422222 18.251852 1.422223 27.591111a266.951111 266.951111 0 0 1-9.007408 69.262222c37.404444-12.373333 35.365926-55.182222 35.365926-55.182222 2.465185-31.241481-12.657778-40.201481-27.780741-41.671111z" fill="#FFCEAA" /><path d="M677.925926 635.259259c-43.567407 17.398519-101.925926 28.065185-165.925926 28.065185s-122.500741-10.714074-165.925926-28.065185c-134.020741 40.722963-239.54963 155.259259-239.54963 289.46963v6.352592h811.140741v-6.352592c0-134.162963-105.623704-248.699259-239.739259-289.46963z" fill="#8BC8C8" /><path d="M917.665185 924.681481v6.4H106.334815v-6.4c0-115.2 77.748148-215.893333 184.462222-267.804444v150.660741h19.674074v-159.573334A365.842963 365.842963 0 0 1 346.074074 635.259259c43.614815 17.445926 101.973333 28.112593 165.925926 28.112593s122.500741-10.666667 165.925926-28.112593a366.980741 366.980741 0 0 1 35.460741 12.8v159.525926h19.674074v-150.708148c106.856296 52.100741 184.604444 152.746667 184.604444 267.804444z" fill="#8BC8C8" /><path d="M310.471111 647.964444v159.573334h-19.674074v-150.660741c6.447407-3.176296 13.037037-6.162963 19.674074-8.912593zM733.202963 656.877037v150.660741h-19.674074v-159.525926c6.637037 2.74963 13.226667 5.736296 19.674074 8.865185z" fill="#FE6985" /><path d="M290.797037 931.034074V754.251852h442.405926v176.782222z" fill="#FE6985" /></svg>