<svg class="svg-icon" style="width: 1em;height: 1em;vertical-align: middle;fill: currentColor;overflow: hidden;" viewBox="0 0 1024 1024" version="1.1" xmlns="http://www.w3.org/2000/svg"><path d="M339.342222 172.041481m-73.291852 0a73.291852 73.291852 0 1 0 146.583704 0 73.291852 73.291852 0 1 0-146.583704 0Z" fill="#704F43" /><path d="M684.657778 172.041481m-73.291852 0a73.291852 73.291852 0 1 0 146.583704 0 73.291852 73.291852 0 1 0-146.583704 0Z" fill="#704F43" /><path d="M594.773333 614.115556v-95.241482H430.411852v95.336296c-171.377778 10.192593-324.077037 143.312593-324.077037 304.782223v6.352592h811.33037v-6.352592c0-161.137778-152.177778-293.973333-322.891852-304.877037z" fill="#FFCEAA" /><path d="M430.411852 518.731852l164.361481 0.142222v234.761482l-164.361481-0.094815" fill="#FFCEAA" /><path d="M429.985185 511.288889l0.711111 59.401481c20.574815 26.453333 67.792593 44.894815 122.88 44.894815a231.537778 231.537778 0 0 0 41.197037-5.499259V502.044444H439.371852a82.678519 82.678519 0 0 0-9.386667 9.244445z" fill="#FFB888" /><path d="M684.041481 348.302222C672.805926 237.037037 595.2 150.85037 512.474074 150.85037c-83.531852 0-162.74963 84.954074-172.847407 197.49926-0.711111 7.917037-1.09037 15.976296-1.090371 24.177777A260.740741 260.740741 0 0 0 348.918519 445.62963c25.41037 86.992593 93.961481 147.484444 164.882962 147.484444 71.822222 0 138.951111-59.97037 162.654815-147.958518a267.235556 267.235556 0 0 0 9.007408-69.262223c0-9.339259-0.521481-18.536296-1.422223-27.591111z" fill="#FBD5B9" /><path d="M405.001481 336.165926a46.601481 46.601481 0 0 1 17.256297-12.894815 53.712593 53.712593 0 0 1 21.522963-4.740741 48.213333 48.213333 0 0 1 21.57037 4.740741 46.364444 46.364444 0 0 1 17.161482 13.037037c-3.555556-0.948148-6.637037-2.465185-9.908149-3.365926a94.151111 94.151111 0 0 0-9.481481-2.654815 74.951111 74.951111 0 0 0-18.962963-2.085926 89.173333 89.173333 0 0 0-19.247407 2.228149 169.339259 169.339259 0 0 0-19.911112 5.736296zM539.06963 336.165926a46.222222 46.222222 0 0 1 17.256296-12.894815 53.475556 53.475556 0 0 1 21.475555-4.740741 48.308148 48.308148 0 0 1 21.617778 4.740741 46.554074 46.554074 0 0 1 17.114074 13.037037c-3.555556-0.948148-6.58963-2.465185-9.908148-3.365926a90.927407 90.927407 0 0 0-9.481481-2.654815 74.951111 74.951111 0 0 0-18.962963-2.085926 89.505185 89.505185 0 0 0-19.247408 2.228149 168.675556 168.675556 0 0 0-19.863703 5.736296z" fill="#54393A" /><path d="M510.008889 455.917037a23.703704 23.703704 0 0 1-12.136296-2.939259 16.308148 16.308148 0 0 1-5.12-20.859259c8.675556-18.299259 7.111111-36.551111 5.404444-55.893334v-2.702222l4.740741-0.426667v2.74963c1.706667 19.958519 3.365926 38.874074-5.878519 58.311111a11.70963 11.70963 0 0 0 3.318519 14.743704c6.58963 4.077037 18.678519 1.896296 27.022222-1.232593l1.659259 4.456296a59.022222 59.022222 0 0 1-19.01037 3.792593z" fill="#E6A996" /><path d="M434.631111 388.598519a24.651852 9.14963 90 1 0 18.299259 0 24.651852 9.14963 90 1 0-18.299259 0Z" fill="#54393A" /><path d="M439.182222 373.902222a2.275556 1.896296 0 1 0 4.551111 0 2.275556 1.896296 0 1 0-4.551111 0Z" fill="#FFFFFF" /><path d="M568.651852 388.598519a24.651852 9.14963 90 1 0 18.299259 0 24.651852 9.14963 90 1 0-18.299259 0Z" fill="#54393A" /><path d="M573.202963 373.902222a2.275556 1.896296 0 1 0 4.551111 0 2.275556 1.896296 0 1 0-4.551111 0Z" fill="#FFFFFF" /><path d="M503.182222 519.395556a50.346667 50.346667 0 0 1-22.660741-4.740741l2.275556-4.124445c0.948148 0.521481 24.367407 12.657778 55.893333-6.637037l2.465186 4.02963a71.86963 71.86963 0 0 1-37.973334 11.472593z" fill="#E6A996" /><path d="M339.626667 348.34963c-15.028148 1.517037-29.866667 10.619259-27.448889 41.623703 0 0-2.133333 43.851852 36.740741 55.656297a260.740741 260.740741 0 0 1-10.382223-73.102223c0-8.201481 0.379259-16.260741 1.090371-24.177777zM684.041481 348.302222c0.900741 9.054815 1.422222 18.251852 1.422223 27.591111a267.235556 267.235556 0 0 1-9.007408 69.262223c37.404444-12.420741 35.365926-55.182222 35.365926-55.182223 2.465185-31.241481-12.657778-40.248889-27.780741-41.671111z" fill="#FFCEAA" /><path d="M713.197037 236.278519S640.948148 113.351111 573.62963 109.653333c0 0-48.308148-7.348148-61.62963 8.770371-13.416296-16.118519-61.62963-8.77037-61.62963-8.770371-67.128889 3.697778-139.377778 126.625185-139.377777 126.625186C268.468148 326.637037 339.01037 388.740741 339.01037 388.740741c42.666667-164.740741 145.872593-173.179259 170.42963-172.8v0.284444h5.30963v-0.284444c24.50963-0.379259 127.668148 8.059259 170.382222 172.8 0 0 70.58963-62.103704 28.065185-152.462222z" fill="#704F43" /><path d="M696.557037 293.594074c9.14963-0.900741-5.404444-52.432593-5.404444-62.103704a55.277037 55.277037 0 0 0-55.22963-55.229629c-5.831111 0-238.222222-26.548148-241.777778-9.481482-5.404444-1.896296-61.297778 34.228148-61.297778 64.711111 0 9.481481-14.554074 61.202963-5.404444 62.103704 0 0 15.265185 32.521481 18.962963 36.077037 0 0 114.583704-19.911111 165.925926-101.973333C563.105185 309.76 677.925926 329.671111 677.925926 329.671111a66.085926 66.085926 0 0 0 18.631111-36.077037z" fill="#704F43" /><path d="M279.703704 823.703704a254.814815 254.814815 0 0 1-39.774815 101.546666h545.185185a255.573333 255.573333 0 0 1-39.822222-101.546666c-9.481481-57.505185 0-112.260741 22.708148-153.505185a372.242963 372.242963 0 0 0-164.02963-55.324445l-82.915555 97.09037a11.282963 11.282963 0 0 1-17.161482 0l-82.536296-97.042963a371.721481 371.721481 0 0 0-164.314074 55.22963C279.703704 711.395556 289.185185 766.198519 279.703704 823.703704z" fill="#F9AF3F" /><path d="M421.357037 614.921481a347.496296 347.496296 0 0 0-74.334815 14.222223L430.317037 777.481481l81.066667-61.629629zM604.017778 614.826667a351.194074 351.194074 0 0 1 74.334815 14.222222L595.057778 777.481481l-81.066667-61.629629z" fill="#FFFFFF" /><path d="M491.282963 715.899259h42.666667v209.351111h-42.666667z" fill="#FFFFFF" /></svg>