<svg class="svg-icon" style="width: 1em;height: 1em;vertical-align: middle;fill: currentColor;overflow: hidden;" viewBox="0 0 1024 1024" version="1.1" xmlns="http://www.w3.org/2000/svg"><path d="M763.259259 283.448889a613.783704 613.783704 0 0 0-78.364444-117.94963C654.222222 129.801481 616.296296 90.642963 567.466667 90.737778a207.928889 207.928889 0 0 0-55.466667 8.296296 207.928889 207.928889 0 0 0-55.466667-8.296296C407.703704 90.642963 369.777778 129.801481 339.2 165.499259A618.24 618.24 0 0 0 260.740741 283.448889c-18.962963 37.688889-31.715556 82.394074-22.423704 125.25037 7.348148 33.943704 79.407407 137.197037 46.791111 168.201482l70.447408 0.995555 76.325925 1.090371v-9.481482a254.293333 254.293333 0 0 1-68.598518-85.712592c-12.98963-33.706667-37.072593-90.074074-20.906667-136.391112 0-0.521481 0.331852-1.042963 0.521482-1.611851 0.568889-1.46963 1.09037-2.986667 1.706666-4.740741 0.900741-2.322963 1.848889-4.740741 2.797037-6.968889s2.654815-5.973333 4.02963-8.96 3.413333-7.063704 5.214815-10.571852 4.171852-7.822222 6.447407-11.662222 4.740741-8.343704 7.632593-12.420741 5.783704-8.485926 8.865185-12.61037 6.637037-8.438519 10.192593-12.420741 7.442963-8.059259 11.472592-11.804444a145.208889 145.208889 0 0 1 12.752593-10.714074 129.659259 129.659259 0 0 1 14.222222-9.102223 114.488889 114.488889 0 0 1 15.454815-7.205926 109.037037 109.037037 0 0 1 16.782222-4.74074 106.761481 106.761481 0 0 1 18.204445-1.848889 108.278519 108.278519 0 0 1 19.579259 1.422222c3.223704 0.474074 6.352593 1.28 9.481481 1.848889a33.706667 33.706667 0 0 0 4.314074 0.331852H512a33.706667 33.706667 0 0 0 4.314074-0.331852c3.176296-0.568889 6.305185-1.374815 9.481482-1.848889a107.946667 107.946667 0 0 1 19.579259-1.422222 106.761481 106.761481 0 0 1 18.204444 1.848889 109.037037 109.037037 0 0 1 16.782222 4.74074 117.238519 117.238519 0 0 1 15.454815 7.205926 129.659259 129.659259 0 0 1 14.222223 9.102223 145.208889 145.208889 0 0 1 12.752592 10.714074c4.02963 3.745185 7.822222 7.68 11.472593 11.804444s6.921481 8.154074 10.145185 12.420741 6.068148 8.343704 8.912592 12.61037 5.214815 8.201481 7.632593 12.420741 4.408889 7.727407 6.4 11.662222 3.555556 7.016296 5.262222 10.571852l4.02963 8.96c0.948148 2.37037 1.896296 4.740741 2.797037 6.968889 0.616296 1.517037 1.137778 3.034074 1.659259 4.740741l0.568889 1.611851c16.165926 46.222222-7.917037 102.684444-20.906667 136.391112a254.293333 254.293333 0 0 1-68.598518 85.712592v9.481482l76.278518-1.090371 70.4-0.995555c-32.616296-31.004444 39.442963-134.257778 46.791112-168.201482 9.244444-42.856296-3.413333-87.561481-22.376297-125.25037z" fill="#39334C" /><path d="M594.773333 622.127407v-95.288888H430.411852v95.383703c-171.377778 10.192593-324.077037 143.265185-324.077037 304.734815v6.4h811.33037v-6.4c0-161.09037-152.177778-293.973333-322.891852-304.82963z" fill="#FFCEAA" /><path d="M429.700741 519.395556l0.711111 59.401481c20.574815 26.453333 67.792593 44.894815 122.927407 44.894815a252.397037 252.397037 0 0 0 41.434074-5.357037v-107.994074H439.134815a87.371852 87.371852 0 0 0-9.434074 9.054815z" fill="#FFB888" /><path d="M684.041481 356.314074c-11.235556-111.265185-88.841481-197.499259-171.567407-197.499259-83.531852 0-162.74963 85.001481-172.847407 197.499259a271.976296 271.976296 0 0 0-1.090371 24.225185 261.12 261.12 0 0 0 10.382223 73.102222C374.518519 540.444444 442.88 601.125926 513.801481 601.125926c71.822222 0 138.951111-59.97037 162.654815-147.958519a267.235556 267.235556 0 0 0 9.007408-69.167407c0-9.481481-0.521481-18.631111-1.422223-27.685926z" fill="#FBD5B9" /><path d="M405.001481 344.177778a46.08 46.08 0 0 1 17.256297-12.894815 53.76 53.76 0 0 1 21.522963-4.740741 48.924444 48.924444 0 0 1 21.57037 4.740741 45.842963 45.842963 0 0 1 17.161482 13.037037c-3.555556-0.948148-6.637037-2.465185-9.908149-3.413333s-6.4-2.085926-9.481481-2.654815a77.131852 77.131852 0 0 0-18.962963-2.085926 92.254815 92.254815 0 0 0-19.247407 2.228148 169.813333 169.813333 0 0 0-19.911112 5.783704zM539.06963 344.177778a45.700741 45.700741 0 0 1 17.256296-12.894815 53.522963 53.522963 0 0 1 21.475555-4.740741 48.971852 48.971852 0 0 1 21.617778 4.740741 46.08 46.08 0 0 1 17.114074 13.037037c-3.555556-0.948148-6.58963-2.465185-9.908148-3.413333s-6.352593-2.085926-9.481481-2.654815a77.131852 77.131852 0 0 0-18.962963-2.085926 92.634074 92.634074 0 0 0-19.247408 2.228148 169.14963 169.14963 0 0 0-19.863703 5.783704z" fill="#54393A" /><path d="M510.008889 463.881481a23.04 23.04 0 0 1-12.136296-2.939259 16.260741 16.260741 0 0 1-5.12-20.811852c8.675556-18.299259 7.111111-36.551111 5.404444-55.893333v-2.74963l4.740741-0.379259v2.702222c1.706667 20.005926 3.365926 38.874074-5.878519 58.358519a11.70963 11.70963 0 0 0 3.318519 14.743704c6.58963 4.02963 18.678519 1.848889 27.022222-1.232593l1.659259 4.456296a59.259259 59.259259 0 0 1-19.01037 3.745185z" fill="#E6A996" /><path d="M434.631111 396.61037a24.651852 9.14963 90 1 0 18.299259 0 24.651852 9.14963 90 1 0-18.299259 0Z" fill="#54393A" /><path d="M439.182222 381.866667a2.275556 1.896296 0 1 0 4.551111 0 2.275556 1.896296 0 1 0-4.551111 0Z" fill="#FFFFFF" /><path d="M568.651852 396.61037a24.651852 9.14963 90 1 0 18.299259 0 24.651852 9.14963 90 1 0-18.299259 0Z" fill="#54393A" /><path d="M573.202963 381.866667a2.275556 1.896296 0 1 0 4.551111 0 2.275556 1.896296 0 1 0-4.551111 0Z" fill="#FFFFFF" /><path d="M503.134815 527.407407a50.251852 50.251852 0 0 1-22.613334-4.74074l2.228149-4.171852c0.995556 0.521481 24.414815 12.705185 55.94074-6.637037l2.465186 4.077037a72.343704 72.343704 0 0 1-38.020741 11.472592z" fill="#E6A996" /><path d="M339.626667 356.314074c-15.028148 1.564444-29.866667 10.666667-27.448889 41.671111 0 0-2.133333 43.851852 36.740741 55.656296a261.12 261.12 0 0 1-10.382223-73.102222c0-8.201481 0.379259-16.260741 1.090371-24.225185zM684.041481 356.314074c0.900741 9.054815 1.422222 18.251852 1.422223 27.638519a266.571852 266.571852 0 0 1-9.007408 69.214814C713.860741 440.888889 711.822222 398.222222 711.822222 398.222222c2.465185-31.478519-12.657778-40.485926-27.780741-41.908148z" fill="#FFCEAA" /><path d="M661.143704 238.317037c-4.219259-3.271111-8.438519-6.305185-12.610371-9.481481A48.971852 48.971852 0 0 0 603.543704 161.185185a49.256296 49.256296 0 0 0-9.955556 0.995556 23.703704 23.703704 0 0 0-2.986667-10.145185c-17.161481-29.724444-98.844444-14.648889-182.471111 33.611851a316.681481 316.681481 0 0 0-85.333333 72.106667c-13.226667 16.023704-26.216296 33.185185-33.659259 52.717037-5.925926 15.691852-10.808889 41.623704 9.244444 49.825185a46.648889 46.648889 0 0 0 26.500741 0.711111 250.216296 250.216296 0 0 0 55.134815-20.053333c51.484444-23.703704 101.688889-50.394074 152.177778-76.136296 18.014815-9.197037 40.296296-16.782222 54.755555-31.241482 0 3.65037 8.912593 20.906667 10.334815 23.703704 20.242963 41.007407 51.626667 71.111111 86.755555 99.223704 1.422222 0 18.962963 8.011852 28.017778-3.792593 13.605926-17.635556-3.271111-77.321481-50.915555-114.394074z" fill="#39334C" /><path d="M822.091852 719.976296H201.765926c-58.263704 54.518519-95.431111 127.241481-95.431111 206.885926v6.4h811.33037v-6.4c0-79.644444-37.214815-152.367407-95.573333-206.885926z" fill="#8BC8C8" /><path d="M251.685926 765.487407a8.106667 8.106667 0 0 1 8.296296 8.106667c0 5.499259-4.740741 9.955556-12.420741 16.64l-0.474074 0.426667-2.18074 1.896296-2.180741-1.896296-1.137778-1.042963c-7.111111-6.352593-11.757037-10.714074-11.757037-16.023704a8.106667 8.106667 0 0 1 8.296296-8.106667 9.054815 9.054815 0 0 1 6.77926 3.081482 9.054815 9.054815 0 0 1 6.779259-3.081482zM429.748148 765.487407a8.106667 8.106667 0 0 1 8.296296 8.106667c0 5.499259-4.740741 9.955556-12.42074 16.64l-0.474074 0.426667-2.180741 1.896296-2.180741-1.896296-1.137778-1.042963C412.444444 783.265185 407.703704 778.903704 407.703704 773.594074a8.106667 8.106667 0 0 1 8.296296-8.106667 9.054815 9.054815 0 0 1 6.779259 3.081482 9.054815 9.054815 0 0 1 6.968889-3.081482zM607.81037 765.487407a8.106667 8.106667 0 0 1 8.296297 8.106667c0 5.499259-4.740741 9.955556-12.420741 16.64l-0.474074 0.426667-2.180741 1.896296-2.180741-1.896296-1.137777-1.042963c-7.111111-6.352593-11.757037-10.714074-11.757037-16.023704a8.106667 8.106667 0 0 1 8.296296-8.106667 9.054815 9.054815 0 0 1 6.779259 3.081482 9.054815 9.054815 0 0 1 6.779259-3.081482zM785.872593 765.487407a8.106667 8.106667 0 0 1 8.296296 8.106667c0 5.499259-4.740741 9.955556-12.420741 16.64l-0.474074 0.426667-2.180741 1.896296-2.18074-1.896296-1.137778-1.042963c-7.111111-6.352593-11.757037-10.714074-11.757037-16.023704a8.106667 8.106667 0 0 1 8.296296-8.106667 9.054815 9.054815 0 0 1 6.779259 3.081482 9.054815 9.054815 0 0 1 6.77926-3.081482zM162.654815 856.794074a8.106667 8.106667 0 0 1 8.296296 8.106667c0 5.499259-4.740741 9.908148-12.420741 16.64l-0.474074 0.426666-2.18074 1.896297-2.180741-1.896297-1.137778-1.042963c-7.111111-6.352593-11.757037-10.714074-11.757037-16.023703a8.106667 8.106667 0 0 1 8.296296-8.106667 8.865185 8.865185 0 0 1 6.77926 3.081482 8.865185 8.865185 0 0 1 6.779259-3.081482zM341.333333 856.794074a8.106667 8.106667 0 0 1 8.296297 8.106667c0 5.499259-4.740741 9.908148-12.420741 16.64L336.592593 881.777778l-2.180741 1.896296-2.180741-1.896296-1.137778-1.042963c-7.111111-6.352593-11.757037-10.714074-11.757037-16.023704a8.106667 8.106667 0 0 1 8.296297-8.106667 8.865185 8.865185 0 0 1 6.779259 3.081482 8.865185 8.865185 0 0 1 6.921481-2.891852zM520.106667 856.794074a8.106667 8.106667 0 0 1 8.296296 8.106667c0 5.499259-4.740741 9.908148-12.420741 16.64l-0.474074 0.426666-2.180741 1.896297-2.18074-1.896297-1.137778-1.042963c-7.111111-6.352593-11.757037-10.714074-11.757037-16.023703a8.059259 8.059259 0 0 1 8.296296-8.106667 8.865185 8.865185 0 0 1 6.779259 3.081482 8.865185 8.865185 0 0 1 6.77926-3.081482zM698.832593 856.794074a8.059259 8.059259 0 0 1 8.248888 8.106667c0 5.499259-4.740741 9.908148-12.373333 16.64l-0.474074 0.426666-2.180741 1.896297-2.18074-1.896297-1.137778-1.042963c-7.111111-6.352593-11.757037-10.714074-11.757037-16.023703a8.059259 8.059259 0 0 1 8.296296-8.106667 8.96 8.96 0 0 1 6.779259 3.081482 8.865185 8.865185 0 0 1 6.77926-3.081482zM877.558519 856.794074a8.059259 8.059259 0 0 1 8.248888 8.106667c0 5.499259-4.740741 9.908148-12.373333 16.64l-0.474074 0.426666-2.180741 1.896297-2.18074-1.896297-1.137778-1.042963c-7.111111-6.352593-11.757037-10.714074-11.757037-16.023703a8.059259 8.059259 0 0 1 8.296296-8.106667 8.96 8.96 0 0 1 6.779259 3.081482 8.865185 8.865185 0 0 1 6.77926-3.081482z" fill="#FFFFFF" /></svg>