<svg class="svg-icon" style="width: 1em;height: 1em;vertical-align: middle;fill: currentColor;overflow: hidden;" viewBox="0 0 1024 1024" version="1.1" xmlns="http://www.w3.org/2000/svg"><path d="M595.105185 606.814815H430.791111c-171.235556 10.42963-323.697778 143.407407-323.697778 304.734815v6.4h809.813334v-4.408889c0-161.185185-150.992593-296.059259-321.801482-306.725926z" fill="#FFCEAA" /><path d="M430.696296 525.89037h164.361482v234.808889H430.696296z" fill="#FFCEAA" /><path d="M430.127407 518.4l0.711112 59.354074c20.574815 26.453333 67.792593 44.894815 122.927407 44.894815a229.925926 229.925926 0 0 0 41.386667-5.546667l-0.237037-107.946666H439.561481a75.851852 75.851852 0 0 0-9.434074 9.244444zM349.108148 354.322963c-15.028148 1.517037-29.914074 10.619259-27.448889 41.623704 0 0-2.133333 43.851852 36.740741 55.656296a259.176296 259.176296 0 0 1-10.42963-73.102222c0-8.201481 0.426667-16.260741 1.137778-24.177778zM676.266667 354.74963c0.900741 9.054815 1.422222 18.251852 1.422222 27.591111a267.235556 267.235556 0 0 1-9.007408 69.262222c37.404444-12.420741 35.318519-55.182222 35.318519-55.182222 2.37037-31.383704-12.61037-40.248889-27.733333-41.671111z" fill="#FFB888" /><path d="M678.305185 340.100741c-10.808889-118.186667-87.561481-169.813333-167.111111-169.813334-80.308148 0-154.358519 50.346667-164.02963 169.860741-0.663704 8.438519-1.042963 17.019259-1.042963 25.694815a303.407407 303.407407 0 0 0 9.955556 77.653333c24.462222 92.207407 90.358519 156.681481 158.53037 156.681482 69.072593 0 133.641481-63.668148 156.444445-157.155556a312.888889 312.888889 0 0 0 8.675555-73.576296c-0.047407-9.955556-0.568889-19.721481-1.422222-29.345185z" fill="#FFCEAA" /><path d="M407.134815 343.22963a46.411852 46.411852 0 0 1 17.208889-12.894815 53.902222 53.902222 0 0 1 21.522963-4.740741 48.924444 48.924444 0 0 1 21.617777 4.740741 46.554074 46.554074 0 0 1 17.114075 13.037037c-3.555556-0.948148-6.58963-2.465185-9.908149-3.365926a90.927407 90.927407 0 0 0-9.481481-2.654815 74.951111 74.951111 0 0 0-18.962963-2.085926 89.505185 89.505185 0 0 0-19.247407 2.228148 168.675556 168.675556 0 0 0-19.863704 5.736297zM541.155556 343.22963a46.601481 46.601481 0 0 1 17.256296-12.894815 53.475556 53.475556 0 0 1 21.475555-4.740741 48.924444 48.924444 0 0 1 21.617778 4.740741 46.743704 46.743704 0 0 1 17.161482 13.037037c-3.555556-0.948148-6.637037-2.465185-9.908148-3.365926a97.659259 97.659259 0 0 0-9.481482-2.654815 75.093333 75.093333 0 0 0-18.962963-2.085926 89.078519 89.078519 0 0 0-18.962963 2.228148 169.339259 169.339259 0 0 0-20.195555 5.736297z" fill="#54393A" /><path d="M512 462.980741a23.703704 23.703704 0 0 1-12.183704-2.93926 16.308148 16.308148 0 0 1-5.12-20.859259c8.722963-18.299259 7.111111-36.551111 5.404445-55.893333v-2.702222l4.74074-0.426667v2.74963c1.754074 19.958519 3.413333 38.874074-5.878518 58.311111a11.70963 11.70963 0 0 0 3.318518 14.743703c6.58963 4.077037 18.678519 1.896296 27.022223-1.232592l1.659259 4.456296a58.974815 58.974815 0 0 1-18.962963 3.792593z" fill="#E6A996" /><path d="M436.717037 395.662222a24.651852 9.14963 90 1 0 18.299259 0 24.651852 9.14963 90 1 0-18.299259 0Z" fill="#54393A" /><path d="M441.268148 380.965926a2.275556 1.896296 0 1 0 4.551111 0 2.275556 1.896296 0 1 0-4.551111 0Z" fill="#FFFFFF" /><path d="M570.737778 395.662222a24.651852 9.14963 90 1 0 18.299259 0 24.651852 9.14963 90 1 0-18.299259 0Z" fill="#54393A" /><path d="M575.288889 380.965926a2.275556 1.896296 0 1 0 4.551111 0 2.275556 1.896296 0 1 0-4.551111 0Z" fill="#FFFFFF" /><path d="M505.268148 526.459259a51.484444 51.484444 0 0 1-22.660741-4.74074l2.275556-4.171852c0.948148 0.521481 24.367407 12.705185 55.893333-6.637037l2.512593 4.029629a72.106667 72.106667 0 0 1-38.020741 11.52z" fill="#E6A996" /><path d="M427.188148 234.856296c-1.564444-2.228148-24.936296 9.481481-26.832592 10.666667-15.691852 8.343704-30.577778 20.717037-36.361482 37.925926-3.792593 11.377778-3.081481 24.367407-4.314074 36.171852-1.754074 16.971852-5.404444 33.848889-5.973333 50.868148l-1.042963 57.694815c-2.654815-22.423704-5.12-44.894815-7.86963-67.318519 0 0-38.257778-55.04-28.017778-106.145185 0 0 7.158519-66.74963 72.912593-72.96z" fill="#704F43" /><path d="M560.877037 225.564444h-2.275556a141.842963 141.842963 0 0 0-26.595555 7.300741 184.414815 184.414815 0 0 1-114.441482-1.564444s-30.435556-10.477037-27.875555-49.588148c0 0-0.379259-79.217778 112.118518-75.567408 74.761481 2.417778 138.714074 51.38963 184.888889 106.524445 14.222222 16.82963 24.367407 36.314074 20.242963 58.927407 0 0-1.46963 8.011852-45.274074 0-2.939259-0.568889-7.158519-4.740741-9.481481-6.352593-15.881481-10.192593-32.663704-19.958519-49.351111-28.776296a80.592593 80.592593 0 0 0-41.955556-10.903704z" fill="#704F43" /><path d="M666.927407 286.008889c6.447407 21.238519 5.499259 45.037037 6.77926 67.034074 0.758519 12.705185 0.853333 25.457778 0.758518 37.925926 0 11.946667 1.374815 25.315556-0.379259 37.12l4.740741-32.474074c1.137778-7.727407 2.56-15.454815 3.413333-23.22963 1.137778-10.287407 5.357037-15.502222 11.614815-23.703704a68.693333 68.693333 0 0 0 12.847407-37.925925 204.657778 204.657778 0 0 0-2.844444-40.580741l-42.097778-1.232593z" fill="#704F43" /><path d="M768 663.419259l0.568889-1.042963a372.242963 372.242963 0 0 0-164.171852-55.324444l-0.331852 0.379259h-1.232592l-82.583704 159.146667-107.140741-158.482963a372.622222 372.622222 0 0 0-155.638518 54.376296c-88.794074 55.466667-150.328889 146.441481-150.328889 248.936296v6.4h809.765926v-4.408888c0-102.257778-60.918519-193.896296-148.906667-249.97926z" fill="#8BC8C8" /><path d="M421.641481 607.099259a347.496296 347.496296 0 0 0-74.334814 14.222222l83.294814 148.100741 81.066667-61.392592zM604.302222 606.814815a351.194074 351.194074 0 0 1 74.334815 14.222222l-83.294815 148.148148-81.066666-61.392592z" fill="#FFFFFF" /><path d="M509.44 709.12L473.031111 734.814815l29.155556 29.202963h23.703703l28.444445-28.207408-37.594074-26.69037a6.115556 6.115556 0 0 0-7.300741 0z" fill="#FFFFFF" /><path d="M547.792593 917.807407h-68.551112l18.962963-168.58074h30.625186l18.962963 168.58074z" fill="#FFFFFF" /></svg>