<svg class="svg-icon" style="width: 1em;height: 1em;vertical-align: middle;fill: currentColor;overflow: hidden;" viewBox="0 0 1024 1024" version="1.1" xmlns="http://www.w3.org/2000/svg"><path d="M595.105185 641.611852H430.791111c-171.235556 10.382222-323.697778 143.407407-323.697778 304.734815V952.888889h809.813334v-4.408889c0-161.185185-150.992593-296.059259-321.801482-306.868148z" fill="#FFCEAA" /><path d="M430.696296 560.82963h164.361482v234.808889H430.696296z" fill="#FFCEAA" /><path d="M430.127407 553.339259l0.711112 59.401482c20.574815 26.453333 67.792593 44.894815 122.927407 44.894815a234.287407 234.287407 0 0 0 41.386667-5.546667l-0.237037-107.994074H439.561481a79.407407 79.407407 0 0 0-9.434074 9.244444zM347.401481 389.262222c-15.028148 1.564444-29.866667 10.619259-27.401481 41.671111 0 0-2.180741 43.851852 36.693333 55.608889a260.740741 260.740741 0 0 1-10.382222-73.054815c0-8.201481 0.379259-16.260741 1.09037-24.225185zM677.925926 389.736296c0.900741 9.007407 1.422222 18.204444 1.422222 27.591111a266.571852 266.571852 0 0 1-9.007407 69.214815C707.745185 474.074074 705.659259 431.407407 705.659259 431.407407c2.512593-31.288889-12.61037-40.296296-27.733333-41.671111z" fill="#FFB888" /><path d="M678.305185 390.352593c-10.808889-111.265185-87.561481-159.857778-167.111111-159.857778-80.308148 0-154.358519 47.407407-164.02963 159.857778a289.232593 289.232593 0 0 0-1.09037 24.225185 269.558519 269.558519 0 0 0 9.955556 73.054815C380.539259 574.625185 446.435556 635.259259 514.607407 635.259259c69.072593 0 133.641481-59.97037 156.444445-147.958518a277.94963 277.94963 0 0 0 8.675555-69.262222c-0.047407-9.434074-0.568889-18.631111-1.422222-27.685926z" fill="#FFCEAA" /><path d="M407.134815 378.216296a45.937778 45.937778 0 0 1 17.208889-12.894815 53.94963 53.94963 0 0 1 21.522963-4.74074 48.355556 48.355556 0 0 1 21.617777 4.74074 46.08 46.08 0 0 1 17.114075 13.037038c-3.555556-0.948148-6.58963-2.465185-9.908149-3.413334s-6.352593-2.085926-9.481481-2.654815a77.131852 77.131852 0 0 0-18.962963-2.085926 92.634074 92.634074 0 0 0-19.247407 2.228149 169.14963 169.14963 0 0 0-19.863704 5.783703zM541.155556 378.216296a46.08 46.08 0 0 1 17.256296-12.894815 53.522963 53.522963 0 0 1 21.475555-4.74074 48.355556 48.355556 0 0 1 21.617778 4.74074 46.222222 46.222222 0 0 1 17.161482 13.037038c-3.555556-0.948148-6.637037-2.465185-9.908148-3.413334s-6.4-2.085926-9.481482-2.654815a77.274074 77.274074 0 0 0-18.962963-2.085926 92.16 92.16 0 0 0-18.962963 2.228149 169.813333 169.813333 0 0 0-20.195555 5.783703z" fill="#54393A" /><path d="M512 497.777778a23.22963 23.22963 0 0 1-12.183704-2.939259 16.260741 16.260741 0 0 1-5.12-20.811852c8.722963-18.299259 7.111111-36.551111 5.404445-55.845926v-2.74963l4.74074-0.426667v2.74963c1.754074 19.958519 3.413333 38.826667-5.878518 58.311111a11.70963 11.70963 0 0 0 3.318518 14.743704c6.637037 4.02963 18.678519 1.848889 27.022223-1.232593l1.659259 4.456297a58.88 58.88 0 0 1-18.962963 3.745185z" fill="#E6A996" /><path d="M436.717037 430.648889a24.651852 9.14963 90 1 0 18.299259 0 24.651852 9.14963 90 1 0-18.299259 0Z" fill="#54393A" /><path d="M441.268148 415.905185a2.275556 1.896296 0 1 0 4.551111 0 2.275556 1.896296 0 1 0-4.551111 0Z" fill="#FFFFFF" /><path d="M570.737778 430.648889a24.651852 9.14963 90 1 0 18.299259 0 24.651852 9.14963 90 1 0-18.299259 0Z" fill="#54393A" /><path d="M575.288889 415.905185a2.275556 1.896296 0 1 0 4.551111 0 2.275556 1.896296 0 1 0-4.551111 0Z" fill="#FFFFFF" /><path d="M505.268148 561.445926a50.346667 50.346667 0 0 1-22.660741-4.740741l2.275556-4.171852c0.995556 0.521481 24.367407 12.705185 55.893333-6.637037l2.512593 4.077037a72.580741 72.580741 0 0 1-38.020741 11.472593z" fill="#E6A996" /><path d="M715.377778 670.72h-1.232593a20.622222 20.622222 0 0 0-7.822222 1.754074 18.962963 18.962963 0 0 1-10.524444 0.805926 100.266667 100.266667 0 0 1-10.998519-5.12c-8.154074-3.081481-16.308148 0-24.035556 2.654815s-15.691852 5.025185-23.703703 7.111111a477.582222 477.582222 0 0 1-96.331852 15.928889 531.342222 531.342222 0 0 1-99.555556-5.594074 474.074074 474.074074 0 0 1-54.518518-12.088889 305.303704 305.303704 0 0 0-37.451852-9.481482 19.38963 19.38963 0 0 0-12.231111 2.038519 35.081481 35.081481 0 0 1-7.727408 4.740741 14.980741 14.980741 0 0 1-6.779259-0.331852 30.672593 30.672593 0 0 0-16.071111-1.090371 91.06963 91.06963 0 0 0-9.481481 4.314074C191.81037 725.333333 144.924444 812.373333 109.037037 918.565926a38.58963 38.58963 0 0 0-2.038518 12.468148h809.908148v-4.408889c0-5.30963-5.546667-13.795556-7.585186-18.962963-2.56-6.305185-5.167407-12.562963-7.774814-18.962963-4.740741-11.899259-10.002963-23.703704-15.312593-35.46074a582.162963 582.162963 0 0 0-32.18963-62.625186 288.568889 288.568889 0 0 0-89.742222-94.53037 383.431111 383.431111 0 0 0-45.463703-24.272593 19.484444 19.484444 0 0 0-3.460741-1.09037z" fill="#FFFFFF" /><path d="M715.377778 670.625185c-51.2 10.808889-196.551111 47.739259-203.377778 49.256296-71.68-18.678519-148.29037-37.641481-203.235556-49.256296-115.531852 49.256296-201.671111 154.500741-201.671111 275.768889V952.888889h809.813334v-4.408889c0-121.647407-85.94963-228.219259-201.528889-277.854815z" fill="#282828" /><path d="M512 719.881481l-78.743704-20.053333-79.217777-28.017778c-5.925926-1.896296-10.287407-3.318519-4.361482-7.395555l81.114074-22.755556v-13.89037l-128.426667 12.847407s-15.075556 25.931852 39.727408 47.028148c0 0 62.340741 37.451852 122.548148 36.598519z" fill="#0F0F0F" /><path d="M302.26963 640.616296s-5.878519 3.081481-13.605926 6.77926c-17.682963 8.533333-28.918519 25.837037-36.408889 43.994074a25.362963 25.362963 0 0 0-2.465185 10.903703s49.967407 23.703704 134.874074 30.103704c0 0 85.617778-2.417778 127.051852-12.468148l-15.122963-1.991111c-22.565926-2.986667-45.084444-6.115556-67.697778-8.580741-10.951111-1.185185-21.94963-2.417778-32.711111-4.740741a188.539259 188.539259 0 0 1-33.943704-11.188148 194.37037 194.37037 0 0 1-21.617778-9.955555 73.576296 73.576296 0 0 1-20.622222-17.398519 94.814815 94.814815 0 0 1-7.395556-10.477037c-2.322963-3.887407-4.740741-7.395556-7.632592-11.093333-0.521481-0.616296-2.275556-3.176296-2.702222-3.887408z" fill="#1E1E1E" /><path d="M512 719.928889l78.696296-20.100741 79.265185-28.017778c5.878519-1.848889 10.24-3.318519 4.361482-7.395555l-79.217778-22.708148v-13.937778l126.625185 12.847407s15.075556 25.931852-39.727407 47.028148c0 0-62.340741 37.451852-122.548148 36.598519z" fill="#0F0F0F" /><path d="M721.682963 640.616296s5.878519 3.081481 13.558518 6.77926c17.73037 8.533333 28.918519 25.837037 36.456297 43.994074a25.362963 25.362963 0 0 1 2.465185 10.903703s-49.967407 23.703704-134.874074 30.151111c0 0-85.665185-2.465185-127.051852-12.515555l15.122963-1.991111c22.565926-2.986667 45.084444-6.115556 67.697778-8.580741 10.951111-1.185185 21.902222-2.417778 32.711111-4.740741a191.004444 191.004444 0 0 0 33.943704-11.188148 198.21037 198.21037 0 0 0 21.617777-9.955555 72.77037 72.77037 0 0 0 20.622223-17.398519 88.50963 88.50963 0 0 0 7.348148-10.477037c2.37037-3.887407 4.977778-7.395556 7.632592-11.093333 0.521481-0.568889 2.322963-3.176296 2.74963-3.887408z" fill="#1E1E1E" /><path d="M390.826667 725.333333a6.542222 6.542222 0 0 1-6.58963-6.21037 6.826667 6.826667 0 0 1 1.659259-4.740741 6.684444 6.684444 0 0 1 4.740741-2.180741 6.826667 6.826667 0 0 1 4.740741 1.706667 6.684444 6.684444 0 0 1 2.180741 4.740741 6.637037 6.637037 0 0 1-6.4 6.684444z m0-10.808889a4.314074 4.314074 0 0 0-3.982223 4.456297 4.171852 4.171852 0 0 0 1.374815 2.891852 4.219259 4.219259 0 0 0 7.063704-3.365926 4.361481 4.361481 0 0 0-1.422222-2.891852 4.077037 4.077037 0 0 0-3.034074-1.232593zM631.04 725.333333a6.4 6.4 0 0 1-4.361481-1.659259 6.494815 6.494815 0 0 1-2.180741-4.740741 6.58963 6.58963 0 0 1 1.659259-4.74074 6.542222 6.542222 0 0 1 9.481482-0.474074 6.494815 6.494815 0 0 1 2.18074 4.74074 6.542222 6.542222 0 0 1-6.21037 6.921482z m0-10.808889h-0.237037a4.361481 4.361481 0 0 0-2.939259 1.422223 3.934815 3.934815 0 0 0-1.042963 3.034074 3.982222 3.982222 0 0 0 1.374815 2.891852 4.219259 4.219259 0 0 0 5.973333-0.284445 4.077037 4.077037 0 0 0 1.042963-3.081481 4.219259 4.219259 0 0 0-4.171852-3.982223z" fill="#282828" /><path d="M400.45037 890.405926l-13.084444-37.688889a64.426667 64.426667 0 0 1 6.874074-55.988148 59.543704 59.543704 0 0 0 3.460741-58.642963L388.740741 719.834074l4.266666-2.085926 9.007408 18.251852a64.18963 64.18963 0 0 1-3.792593 63.336296 59.638519 59.638519 0 0 0-6.352592 51.816297l13.084444 37.925926zM621.274074 890.405926l-4.740741-1.564445 13.084445-37.925925a59.638519 59.638519 0 0 0-6.352593-51.816297 64.18963 64.18963 0 0 1-3.745185-63.336296l9.007407-18.251852 4.266667 2.085926-9.054815 18.251852a59.448889 59.448889 0 0 0 3.508148 58.642963 64.426667 64.426667 0 0 1 6.874074 55.988148z" fill="#0F0F0F" /><path d="M390.968889 310.802963a38.4 38.4 0 0 0-33.517037 39.632593c0 11.994074 3.792593 23.703704 1.611852 35.887407a60.207407 60.207407 0 0 1-2.654815 8.817778 129.659259 129.659259 0 0 0-7.253333 60.397037l1.185185 10.382222c-1.28-7.111111-7.632593-42.666667-7.964445-44.562963C336.592593 384 326.494815 344.794074 330.002963 307.247407c2.702222-29.202963 11.567407-70.826667 44.373333-80.023703l34.654815 31.241481L416.853333 289.185185l-5.214814 15.644445zM634.311111 310.802963a38.4 38.4 0 0 1 33.517037 39.632593c0 11.994074-3.792593 23.703704-1.611852 35.887407a54.85037 54.85037 0 0 0 2.654815 8.817778 130.275556 130.275556 0 0 1 7.253333 60.397037l-1.185185 10.382222c1.28-7.111111 7.632593-42.666667 7.964445-44.562963 5.925926-37.262222 15.881481-76.562963 12.373333-114.10963-2.702222-29.202963-11.567407-70.826667-44.420741-80.023703L616.296296 258.465185 608.426667 289.185185l5.214814 15.644445z" fill="#704F43" /><path d="M675.887407 195.745185c4.456296 16.165926 0 42.903704-4.077037 58.88a71.822222 71.822222 0 0 1-26.121481 41.434074c-10.761481 7.68-23.703704 9.102222-36.503704 11.851852-13.748148 3.034074-27.591111 5.878519-41.434074 8.343704A351.099259 351.099259 0 0 1 474.074074 321.327407c-29.25037-2.654815-59.543704-8.296296-81.066667-29.914074a103.774815 103.774815 0 0 1-14.648888-18.725926c-20.527407-33.185185-37.925926-72.865185-19.626667-109.511111a104.580741 104.580741 0 0 1 7.063704-14.885926l2.607407 16.402963 8.533333-30.909629 14.222223 15.265185 3.697777-16.782222-6.684444-1.46963 18.962963-3.365926 1.469629-4.740741 18.631112-13.037037 9.481481 7.063704 3.365926-10.05037H464.592593l-12.657778-8.533334 23.703704-2.607407 17.872592 2.607407-1.137778-7.063703 14.222223 2.939259-7.774815-10.761482 24.557037 5.546667 81.161481 30.90963-49.54074-28.444445s92.207407 0.426667 120.888888 104.485926z" fill="#704F43" /></svg>