<svg class="svg-icon" style="width: 1em;height: 1em;vertical-align: middle;fill: currentColor;overflow: hidden;" viewBox="0 0 1024 1024" version="1.1" xmlns="http://www.w3.org/2000/svg"><path d="M430.411852 547.223704h164.361481v234.808889H430.411852z" fill="#FFCEAA" /><path d="M429.985185 539.733333l0.711111 59.401482c20.574815 26.453333 67.792593 44.894815 122.88 44.894815a227.271111 227.271111 0 0 0 41.197037-5.546667V530.488889H439.371852a78.885926 78.885926 0 0 0-9.386667 9.244444z" fill="#FFB888" /><path d="M685.463704 404.337778c0 124.302222-82.251852 217.220741-171.662223 217.220741s-175.407407-96.284444-175.407407-220.586667 84.66963-221.724444 174.08-221.724445 172.98963 100.788148 172.98963 225.090371z" fill="#FBD5B9" /><path d="M594.583704 642.512593c0.331852 3.508148 0.521481 7.016296 0.521481 10.571851 0 58.500741-27.97037 105.908148-82.394074 105.908149s-82.631111-47.407407-82.631111-105.813334c0-3.602963 0-7.158519 0.521481-10.666666-171.472593 10.145185-324.266667 143.265185-324.266666 304.782222v6.4h811.33037v-6.4c0-161.042963-152.272593-293.973333-323.081481-304.782222z" fill="#F9AF3F" /><path d="M430.411852 642.512593s-73.197037 123.259259-18.962963 165.925926l100.788148-49.303704s-70.921481-33.801481-81.825185-116.622222zM594.773333 642.512593s72.912593 122.500741 18.488889 165.072592l-100.882963-48.592592s71.537778-33.659259 82.394074-116.48zM518.779259 811.614815a8.106667 8.106667 0 0 1 8.296297 8.106666c0 5.499259-4.740741 9.955556-12.420741 16.64l-0.474074 0.426667-2.180741 1.943704-2.180741-1.943704-1.137778-0.995555c-7.111111-6.4-11.757037-10.714074-11.757037-16.071112a8.106667 8.106667 0 0 1 8.296297-8.106666 9.054815 9.054815 0 0 1 6.779259 3.081481 9.054815 9.054815 0 0 1 6.779259-3.081481zM518.779259 875.140741a8.106667 8.106667 0 0 1 8.296297 8.106666c0 5.499259-4.740741 9.955556-12.420741 16.64l-0.474074 0.426667-2.180741 1.943704-2.180741-1.943704-1.137778-1.042963c-7.111111-6.352593-11.757037-10.666667-11.757037-16.023704a8.106667 8.106667 0 0 1 8.296297-8.106666 9.054815 9.054815 0 0 1 6.779259 3.081481 9.054815 9.054815 0 0 1 6.779259-3.081481z" fill="#FFFFFF" /><path d="M780.468148 558.554074c-23.703704-29.345185-35.84-63.952593-24.035555-105.860741 7.016296-24.936296 21.997037-47.407407 26.832592-72.675555 6.352593-33.185185-5.30963-67.081481-21.902222-96.379259-17.588148-31.099259-38.731852-60.112593-56.082963-91.25926S668.444444 123.259259 638.245926 102.068148c-22.85037-16.260741-52.66963-18.678519-80.592593-17.967407a70.068148 70.068148 0 0 1-18.631111-1.090371 103.395556 103.395556 0 0 1-13.748148-5.404444C473.552593 56.13037 406.139259 85.333333 367.644444 121.173333c-28.444444 26.453333-46.791111 66.891852-66.749629 99.887408-27.259259 44.98963-68.314074 103.727407-57.742222 158.957037 4.740741 25.41037 19.816296 47.739259 26.832592 72.675555 11.804444 41.908148-0.237037 76.515556-23.988148 105.860741a33.185185 33.185185 0 0 0 12.8 52.148148h0.616296a274.962963 274.962963 0 0 0 50.346667 12.278519 503.514074 503.514074 0 0 0 120.651852 0c0-2.702222 0.331852-24.367407 0-29.724445-1.46963-1.185185-9.718519-8.438519-11.235556-9.481481a151.04 151.04 0 0 1-8.722963-7.822222 211.721481 211.721481 0 0 1-55.514074-96.616297 132.171852 132.171852 0 0 1 4.740741-84.669629c11.804444-31.336296 23.419259-63.099259 32.758519-95.336297 18.962963-18.299259 51.38963-14.222222 51.389629-14.222222A174.601481 174.601481 0 0 0 582.162963 236.562963c12.705185 3.128889 23.703704 12.61037 33.185185 24.888889 1.801481 2.891852 3.508148 5.831111 5.072593 8.817778a274.157037 274.157037 0 0 1 13.937778 37.546666c4.740741 13.463704 10.097778 26.737778 15.454814 39.964445 12.752593 31.383704 30.293333 66.702222 29.013334 101.357037C677.925926 474.074074 668.444444 499.626667 657.161481 521.481481a253.724444 253.724444 0 0 1-25.031111 38.874075 148.005926 148.005926 0 0 1-16.45037 18.014814c-2.228148 2.038519-4.740741 3.982222-6.921481 5.878519-1.327407 1.09037-11.994074 9.481481-14.222223 10.808889-0.284444 5.404444 0 25.837037 0 28.444444a512 512 0 0 0 121.931852-0.568889 273.303704 273.303704 0 0 0 50.299259-12.278518h0.663704a33.185185 33.185185 0 0 0 13.037037-52.100741z" fill="#54393A" /><path d="M312.177778 418.417778s-2.37037 47.691852 41.908148 56.888889a132.077037 132.077037 0 0 1 5.594074-80.877037L365.037037 379.685926c-11.899259-3.555556-56.888889-13.558519-52.859259 38.731852zM711.822222 418.417778c3.745185-47.644444-33.185185-43.567407-49.114074-39.774815 9.197037 22.85037 17.114074 46.838519 16.213333 70.494815a128.663704 128.663704 0 0 1-3.602962 24.888889c38.684444-11.899259 36.503704-55.608889 36.503703-55.608889z" fill="#FFCEAA" /><path d="M405.001481 364.61037a46.08 46.08 0 0 1 17.256297-12.894814 53.76 53.76 0 0 1 21.522963-4.740741 48.924444 48.924444 0 0 1 21.57037 4.740741 45.842963 45.842963 0 0 1 17.161482 13.037037c-3.555556-0.948148-6.637037-2.465185-9.908149-3.413334s-6.4-2.038519-9.481481-2.654815a77.131852 77.131852 0 0 0-18.962963-2.085925 92.254815 92.254815 0 0 0-19.247407 2.228148 169.813333 169.813333 0 0 0-19.911112 5.783703zM539.06963 364.61037a45.700741 45.700741 0 0 1 17.256296-12.894814 53.522963 53.522963 0 0 1 21.475555-4.740741 48.971852 48.971852 0 0 1 21.617778 4.740741 46.08 46.08 0 0 1 17.114074 13.037037c-3.555556-0.948148-6.58963-2.465185-9.908148-3.413334s-6.352593-2.038519-9.481481-2.654815a77.131852 77.131852 0 0 0-18.962963-2.085925 92.634074 92.634074 0 0 0-19.247408 2.228148 169.14963 169.14963 0 0 0-19.863703 5.783703z" fill="#54393A" /><path d="M510.008889 484.314074a23.04 23.04 0 0 1-12.136296-2.939259 16.260741 16.260741 0 0 1-5.12-20.811852c8.675556-18.299259 7.111111-36.551111 5.404444-55.893333v-2.702223l4.740741-0.426666v2.702222c1.706667 20.005926 3.365926 38.874074-5.878519 58.358518a11.70963 11.70963 0 0 0 3.318519 14.743704c6.58963 4.02963 18.678519 1.848889 27.022222-1.232592l1.659259 4.456296a59.259259 59.259259 0 0 1-19.01037 3.745185z" fill="#E6A996" /><path d="M434.631111 417.042963a24.651852 9.14963 90 1 0 18.299259 0 24.651852 9.14963 90 1 0-18.299259 0Z" fill="#54393A" /><path d="M439.182222 402.299259a2.275556 1.896296 0 1 0 4.551111 0 2.275556 1.896296 0 1 0-4.551111 0Z" fill="#FFFFFF" /><path d="M568.651852 417.042963a24.651852 9.14963 90 1 0 18.299259 0 24.651852 9.14963 90 1 0-18.299259 0Z" fill="#54393A" /><path d="M573.202963 402.299259a2.275556 1.896296 0 1 0 4.551111 0 2.275556 1.896296 0 1 0-4.551111 0Z" fill="#FFFFFF" /><path d="M503.134815 547.84a50.251852 50.251852 0 0 1-22.613334-4.740741l2.228149-4.171852c0.995556 0.521481 24.414815 12.705185 55.94074-6.637037l2.465186 4.077037a72.343704 72.343704 0 0 1-38.020741 11.472593z" fill="#E6A996" /></svg>