<svg class="svg-icon" style="width: 1em;height: 1em;vertical-align: middle;fill: currentColor;overflow: hidden;" viewBox="0 0 1024 1024" version="1.1" xmlns="http://www.w3.org/2000/svg"><path d="M874.145185 707.413333c-4.740741-20.954074 11.70963-39.727407 10.666667-60.634074-0.853333-16.402963-12.183704-31.051852-25.552593-39.822222-10.856296-7.158519-26.405926-10.24-29.297778-25.031111-3.792593-19.768889 1.943704-39.964444-1.706666-59.733333a102.494815 102.494815 0 0 0-40.865185-62.672593 27.448889 27.448889 0 0 1-11.188149-11.235556c-4.219259-11.093333 7.822222-33.46963 7.632593-46.459259a114.962963 114.962963 0 0 0-12.420741-48.592592 191.573333 191.573333 0 0 0-28.207407-40.343704c-10.477037-11.899259-23.703704-18.962963-23.703704-35.176296 0-107.425185-102.494815-191.431111-209.92-191.431112A257.754074 257.754074 0 0 0 346.074074 147.911111C309.001481 179.531852 277.522963 227.555556 282.074074 277.997037c0.805926 8.96 2.37037 18.962963-3.318518 26.026667s-13.416296 9.860741-18.962963 15.881481a87.561481 87.561481 0 0 0-14.743704 21.902222A85.333333 85.333333 0 0 0 237.985185 393.481481c2.180741 11.662222 6.826667 23.703704-0.284444 34.465186s-20.48 12.562963-30.008889 19.863703a60.491852 60.491852 0 0 0-20.764445 34.891852A62.672593 62.672593 0 0 0 189.62963 516.740741c3.271111 8.865185 9.481481 16.924444 3.365926 26.311111-5.30963 8.201481-16.402963 11.140741-24.69926 15.217778a83.105185 83.105185 0 0 0-43.14074 52.432592 84.574815 84.574815 0 0 0 0.426666 44.420741c3.934815 14.222222 18.962963 28.444444 17.872593 43.425185-0.711111 8.77037-9.481481 14.222222-16.545185 19.484445-28.065185 21.380741-40.912593 61.62963-38.257778 95.62074a60.444444 60.444444 0 0 0 9.481481 30.767408c15.928889 22.328889 49.303704 26.595556 74.477037 26.974815L658.962963 879.075556l74.477037 15.217777a395.804444 395.804444 0 0 0 42.334815 8.485926c28.444444 2.512593 60.34963-4.740741 87.229629-12.752592a144.592593 144.592593 0 0 0 41.765926-18.631111 71.395556 71.395556 0 0 0 28.065186-35.318519c6.447407-19.531852 1.659259-41.339259-8.154075-59.354074-12.088889-22.091852-33.185185-36.598519-45.937777-57.837037a40.96 40.96 0 0 1-4.598519-11.472593z" fill="#39334C" /><path d="M429.842963 531.437037h164.361481v234.808889H429.842963zM339.626667 361.007407c-15.028148 1.517037-29.866667 10.619259-27.448889 41.623704 0 0-2.133333 43.851852 36.740741 55.656296a260.740741 260.740741 0 0 1-10.382223-73.102222c0-8.201481 0.379259-16.260741 1.090371-24.177778z" fill="#FFCEAA" /><path d="M429.842963 524.136296V583.111111c20.574815 26.453333 67.887407 44.98963 122.974815 44.98963a230.874074 230.874074 0 0 0 41.339259-3.650371v-109.653333H438.613333a73.671111 73.671111 0 0 0-8.77037 9.339259z" fill="#FFB888" /><path d="M684.041481 360.96c0.900741 9.054815 1.422222 18.251852 1.422223 27.591111a267.235556 267.235556 0 0 1-9.007408 69.262222c37.404444-12.420741 35.365926-55.182222 35.365926-55.182222 2.465185-31.241481-12.657778-40.248889-27.780741-41.671111z" fill="#FFCEAA" /><path d="M684.041481 360.96c-11.235556-111.265185-88.841481-197.499259-171.567407-197.499259-83.531852 0-162.74963 85.001481-172.847407 197.546666-0.711111 7.917037-1.09037 15.976296-1.090371 24.177778a260.740741 260.740741 0 0 0 10.382223 73.102222c25.6 86.897778 93.961481 147.484444 164.882962 147.484445 71.822222 0 138.951111-59.97037 162.654815-147.958519a267.235556 267.235556 0 0 0 9.007408-69.072592c0-9.481481-0.521481-18.725926-1.422223-27.780741z" fill="#FBD5B9" /><path d="M676.456296 297.197037c8.106667-0.805926-4.740741-10.619259-4.74074-18.962963a16.023704 16.023704 0 0 0-6.257778-12.752593 49.208889 49.208889 0 0 0-43.045926-72.96c-5.167407 0-7.016296-4.740741-11.70963-3.365925-3.365926-14.980741-0.331852-27.022222-32.900741-27.022223-8.059259 0-16.877037-8.96-24.509629-11.472592v-6.4c-2.844444 0.995556-5.831111 2.133333-8.96 3.318518-3.128889-1.185185-27.117037-5.499259-29.914074-6.494815l-37.546667-6.968888c-7.632593 2.56-15.36 18.962963-23.419259 18.962963-32.616296 0-43.188148 15.928889-46.601482 30.957037-4.740741-1.517037 0 8.628148-5.167407 8.628148A49.208889 49.208889 0 0 0 358.58963 265.481481a16.023704 16.023704 0 0 0-6.210371 12.610371c0 8.343704-12.894815 18.157037-4.74074 18.962963l-12.088889 18.157037 2.37037 39.395555 0.711111 41.291852s10.287407-29.108148 25.78963-66.702222c0 0 102.068148-17.73037 147.626666-90.832593 45.511111 73.102222 147.579259 90.832593 147.57926 90.832593 16.82963 42.666667 25.837037 66.702222 25.837037 66.702222l0.711111-41.291852 2.37037-39.395555z" fill="#39334C" /><path d="M405.001481 348.823704a46.08 46.08 0 0 1 17.256297-12.894815 52.906667 52.906667 0 0 1 21.522963-4.740741 48.213333 48.213333 0 0 1 21.57037 4.740741 45.842963 45.842963 0 0 1 17.161482 13.037037c-3.555556-0.948148-6.637037-2.465185-9.908149-3.365926a94.151111 94.151111 0 0 0-9.481481-2.654815 77.179259 77.179259 0 0 0-18.962963-2.133333 92.34963 92.34963 0 0 0-19.247407 2.275555 169.339259 169.339259 0 0 0-19.911112 5.736297zM539.06963 348.823704a45.700741 45.700741 0 0 1 17.256296-12.894815 52.717037 52.717037 0 0 1 21.475555-4.740741 48.308148 48.308148 0 0 1 21.617778 4.740741 46.08 46.08 0 0 1 17.114074 13.037037c-3.555556-0.948148-6.58963-2.465185-9.908148-3.365926a90.927407 90.927407 0 0 0-9.481481-2.654815 77.179259 77.179259 0 0 0-18.962963-2.133333 92.728889 92.728889 0 0 0-19.247408 2.275555 168.675556 168.675556 0 0 0-19.863703 5.736297z" fill="#39334C" /><path d="M510.008889 468.527407a23.04 23.04 0 0 1-12.136296-2.939259 16.260741 16.260741 0 0 1-5.12-20.811852c8.675556-18.299259 7.111111-36.551111 5.404444-55.893333v-2.702222l4.740741-0.426667v2.74963c1.706667 19.958519 3.365926 38.826667-5.878519 58.311111a11.70963 11.70963 0 0 0 3.318519 14.743704c6.58963 4.077037 18.678519 1.896296 27.022222-1.232593l1.659259 4.456296a59.259259 59.259259 0 0 1-19.01037 3.745185z" fill="#E6A996" /><path d="M434.631111 401.256296a24.651852 9.14963 90 1 0 18.299259 0 24.651852 9.14963 90 1 0-18.299259 0Z" fill="#39334C" /><path d="M439.182222 386.512593a2.275556 1.896296 0 1 0 4.551111 0 2.275556 1.896296 0 1 0-4.551111 0Z" fill="#FFFFFF" /><path d="M568.651852 401.256296a24.651852 9.14963 90 1 0 18.299259 0 24.651852 9.14963 90 1 0-18.299259 0Z" fill="#39334C" /><path d="M573.202963 386.512593a2.275556 1.896296 0 1 0 4.551111 0 2.275556 1.896296 0 1 0-4.551111 0Z" fill="#FFFFFF" /><path d="M503.182222 532.053333a50.346667 50.346667 0 0 1-22.660741-4.74074l2.275556-4.171852c0.948148 0.568889 24.367407 12.705185 55.893333-6.58963l2.465186 4.02963a72.296296 72.296296 0 0 1-37.973334 11.472592z" fill="#E6A996" /><path d="M810.666667 714.524444a373.001481 373.001481 0 0 0-216.69926-87.751111v10.761482c0 58.453333-26.974815 105.671111-81.398518 105.671111s-82.631111-47.407407-82.631111-105.765926c0-3.602963 0-7.158519 0.521481-10.666667a370.962963 370.962963 0 0 0-217.125926 87.703704c-64.711111 55.466667-106.808889 132.314074-106.808889 217.031111v6.4h811.140741v-6.4c0-84.66963-42.097778-161.517037-106.998518-216.983704z" fill="#FFCEAA" /><path d="M810.666667 714.524444q-6.542222-5.546667-13.368889-10.808888l-3.84-2.93926c-3.555556-2.654815-7.158519-5.262222-10.761482-7.774815l-3.697777-2.56c-0.521481-0.379259-1.09037-0.711111-1.65926-1.042962-37.925926 43.377778-121.647407 63.241481-211.958518 45.179259-79.597037-15.928889-143.122963-56.888889-169.623704-104.011852A371.579259 371.579259 0 0 0 293.925926 662.186667l-1.564445 0.758518q-7.964444 3.84-15.644444 7.964445l-1.09037 0.568889a354.057481 354.057481 0 0 0-30.862223 18.962962l-3.745185 2.607408c-3.65037 2.512593-7.205926 5.12-10.714074 7.774815l-3.84 2.939259c-4.740741 3.508148-9.054815 7.111111-13.416296 10.808889-64.711111 55.466667-106.808889 132.314074-106.808889 217.031111v6.4h811.425185v-6.4c0-84.764444-42.097778-161.611852-106.998518-217.078519z" fill="#FE6985" /><path d="M692.148148 811.614815a8.106667 8.106667 0 0 1 8.296296 8.106666c0 5.499259-4.740741 9.955556-12.42074 16.64l-0.474074 0.426667-2.180741 1.943704-2.180741-1.943704-1.137778-0.995555c-7.111111-6.4-11.70963-10.714074-11.709629-16.071112a8.059259 8.059259 0 0 1 8.248889-8.106666 9.054815 9.054815 0 0 1 6.779259 3.081481 9.102222 9.102222 0 0 1 6.779259-3.081481z" fill="#FFFFFF" /><path d="M653.605926 635.496296c-6.257778-1.422222-12.61037-2.654815-18.962963-3.792592l-34.607407 110.222222 18.346666 5.736296z" fill="#FE6985" /></svg>