<svg class="svg-icon" style="width: 1em;height: 1em;vertical-align: middle;fill: currentColor;overflow: hidden;" viewBox="0 0 1024 1024" version="1.1" xmlns="http://www.w3.org/2000/svg"><path d="M749.89037 533.617778c19.674074-95.81037 18.962963-283.306667-39.917037-367.122963a125.44 125.44 0 0 0-19.958518-24.272593l-0.237037-0.284444a95.81037 95.81037 0 0 0-11.851852-10.524445 259.365926 259.365926 0 0 0-28.823704-20.385185c-25.931852-15.786667-56.888889-20.242963-87.419259-19.484444a73.718519 73.718519 0 0 1-20.195556-1.185185 107.614815 107.614815 0 0 1-14.885926-5.831112c-55.893333-23.277037-137.481481 8.675556-179.342222 47.407408-3.602963 2.986667-7.016296 6.115556-10.382222 9.244444a113.777778 113.777778 0 0 0-21.096296 23.134815c-63.099259 80.071111-58.358519 265.955556-35.508148 363.70963" fill="#39334C" /><path d="M365.985185 450.797037l15.597037-94.814815-34.702222-36.124444 10.903704-74.42963 221.155555-53.712592 106.524445 117.285925-4.740741 11.52-1.943704-0.948148-34.986666 36.361482 15.644444 94.814815-26.88 88.888889-2.465185-3.081482-8.580741-0.948148-5.973333 19.579259" fill="#54393A" /><path d="M430.364444 541.013333h164.361482v234.808889H430.364444z" fill="#FFCEAA" /><path d="M429.89037 533.522963l0.474074 59.259259c20.574815 26.500741 68.077037 45.037037 123.25926 45.037037a227.271111 227.271111 0 0 0 41.197037-5.546666v-107.994074h-155.496297a83.152593 83.152593 0 0 0-9.434074 9.244444z" fill="#FFB888" /><path d="M340.148148 370.583704c-14.980741 1.517037-29.866667 10.619259-27.401481 41.623703 0 0-2.180741 43.851852 36.693333 55.656297a261.12 261.12 0 0 1-10.382222-73.102223c0-8.201481 0.379259-16.260741 1.09037-24.177777zM684.562963 370.536296a266.619259 266.619259 0 0 1-7.585185 96.853334C714.42963 455.111111 712.343704 412.444444 712.343704 412.444444c2.465185-31.478519-12.61037-40.485926-27.780741-41.908148z" fill="#FFCEAA" /><path d="M684.041481 370.536296c-11.235556-111.265185-88.841481-197.499259-171.567407-197.499259-83.531852 0-162.74963 85.001481-172.847407 197.546667-0.711111 7.917037-1.09037 15.976296-1.090371 24.177777a261.12 261.12 0 0 0 10.382223 73.102223C374.518519 554.666667 442.88 615.348148 513.801481 615.348148c71.822222 0 138.951111-59.97037 162.654815-147.958518a267.235556 267.235556 0 0 0 9.007408-69.167408c0-9.481481-0.521481-18.631111-1.422223-27.685926z" fill="#FBD5B9" /><path d="M406.234074 358.4a46.08 46.08 0 0 1 17.256296-12.894815 53.522963 53.522963 0 0 1 21.475556-4.740741 48.971852 48.971852 0 0 1 21.617778 4.740741A46.222222 46.222222 0 0 1 483.555556 358.4c-3.555556-0.948148-6.637037-2.465185-9.955556-3.413333s-6.352593-2.038519-9.481481-2.654815a76.657778 76.657778 0 0 0-18.962963-2.085926 91.828148 91.828148 0 0 0-18.962963 2.228148 169.813333 169.813333 0 0 0-19.958519 5.925926zM540.444444 358.4a46.08 46.08 0 0 1 17.256297-12.894815 53.76 53.76 0 0 1 21.522963-4.740741 48.924444 48.924444 0 0 1 21.57037 4.740741 45.842963 45.842963 0 0 1 17.161482 13.037037c-3.555556-0.948148-6.637037-2.465185-9.908149-3.413333s-6.4-2.038519-9.481481-2.654815a77.131852 77.131852 0 0 0-18.962963-2.085926 92.254815 92.254815 0 0 0-19.247407 2.228148 169.813333 169.813333 0 0 0-19.911112 5.783704z" fill="#54393A" /><path d="M511.241481 478.103704a23.22963 23.22963 0 0 1-12.183703-2.93926 16.355556 16.355556 0 0 1-5.12-20.811851c8.722963-18.299259 7.111111-36.551111 5.404444-55.893334v-2.702222l4.740741-0.426667v2.74963c1.754074 19.958519 3.413333 38.826667-5.831111 58.311111a11.662222 11.662222 0 0 0 3.271111 14.743704c6.637037 4.02963 18.678519 1.848889 27.022222-1.232593l1.659259 4.456297a58.88 58.88 0 0 1-18.962963 3.745185z" fill="#E6A996" /><path d="M435.816296 410.832593a24.651852 9.14963 90 1 0 18.29926 0 24.651852 9.14963 90 1 0-18.29926 0Z" fill="#54393A" /><path d="M440.367407 396.088889a2.275556 1.896296 0 1 0 4.551112 0 2.275556 1.896296 0 1 0-4.551112 0Z" fill="#FFFFFF" /><path d="M569.884444 410.832593a24.651852 9.14963 90 1 0 18.29926 0 24.651852 9.14963 90 1 0-18.29926 0Z" fill="#54393A" /><path d="M574.435556 396.088889a2.275556 1.896296 0 1 0 4.551111 0 2.275556 1.896296 0 1 0-4.551111 0Z" fill="#FFFFFF" /><path d="M504.367407 541.62963a50.346667 50.346667 0 0 1-22.66074-4.740741l2.275555-4.171852c0.995556 0.521481 24.414815 12.705185 55.940741-6.58963l2.465185 4.02963a72.438519 72.438519 0 0 1-38.020741 11.472593z" fill="#E6A996" /><path d="M594.583704 636.207407h-0.426667v0.758519l-27.06963 37.025185c-33.706667 33.517037-75.093333 32.568889-108.278518-2.56L431.407407 637.724444v-1.611851h-1.042963c-171.235556 10.382222-323.697778 143.407407-323.697777 304.734814v6.352593h810.998518v-6.352593c0-160.948148-152.272593-293.831111-323.081481-304.64z" fill="#FFCEAA" /><path d="M664.272593 277.94963l22.945185-104.296297-104.296297-22.945185-3.745185 17.114074v-5.594074a7.205926 7.205926 0 0 0-7.205926-7.158518H437.096296a7.205926 7.205926 0 0 0-7.205926 7.158518v22.945185h-80.592592V237.037037h43.425185l-35.081482 8.533333-12.705185 87.277037a94.388148 94.388148 0 0 1 40.628148-8.912592l7.300741-30.482963 8.248889 31.241481q28.444444 1.422222 58.168889 2.133334c4.361481-16.734815 22.565926-83.437037 38.447407-90.074074l0.426667 90.453333h27.448889l21.997037-30.957037 10.666667 30.862222q36.882963-0.711111 72.438518-2.56v-46.980741s16.877037 24.462222 21.997037 45.558519a62.151111 62.151111 0 0 1 25.457778 4.740741l7.300741-18.678519-29.914074-33.185185z" fill="#39334C" /><path d="M618.714074 638.625185L512 778.856296l-106.666667-140.136296c-160.948148 20.954074-298.998519 148.717037-298.998518 302.26963v6.352592h811.33037v-6.352592c0-153.457778-138.192593-281.220741-298.951111-302.364445z" fill="#8BC8C8" /><path d="M512 809.291852l136.533333-165.451852q-14.743704-3.176296-29.819259-5.214815L512 778.856296l-106.666667-140.136296c-10.05037 1.28-20.005926 3.034074-29.866666 5.12z" fill="#F9AF3F" /></svg>