<svg class="svg-icon" style="width: 1em;height: 1em;vertical-align: middle;fill: currentColor;overflow: hidden;" viewBox="0 0 1024 1024" version="1.1" xmlns="http://www.w3.org/2000/svg"><path d="M512 136.722963m-69.546667 0a69.546667 69.546667 0 1 0 139.093334 0 69.546667 69.546667 0 1 0-139.093334 0Z" fill="#312D42" /><path d="M430.364444 550.447407h164.361482v234.808889H430.364444z" fill="#FFCEAA" /><path d="M429.89037 542.957037l0.474074 59.259259c20.574815 26.500741 68.077037 45.037037 123.25926 45.037037a227.271111 227.271111 0 0 0 41.197037-5.546666v-107.994074h-155.496297a79.312593 79.312593 0 0 0-9.434074 9.244444z" fill="#FFB888" /><path d="M340.148148 379.97037c-14.980741 1.564444-29.866667 10.619259-27.401481 41.671111 0 0-2.180741 43.851852 36.693333 55.608889a260.740741 260.740741 0 0 1-10.382222-73.054814c0-8.201481 0.379259-16.260741 1.09037-24.225186zM685.179259 379.97037c15.028148 1.564444 29.866667 10.619259 27.448889 41.671111 0 0 2.133333 43.851852-36.740741 55.608889a258.844444 258.844444 0 0 0 10.382223-73.054814c0-8.201481-0.379259-16.260741-1.090371-24.225186zM501.76 379.97037a266.619259 266.619259 0 0 1-7.585185 96.853334c37.451852-12.420741 35.365926-55.182222 35.365926-55.182223 2.465185-31.241481-12.8-40.248889-27.780741-41.671111z" fill="#FFCEAA" /><path d="M684.041481 379.97037c-11.235556-111.265185-88.841481-197.499259-171.567407-197.499259-83.531852 0-162.74963 85.001481-172.847407 197.499259a271.976296 271.976296 0 0 0-1.090371 24.225186 260.740741 260.740741 0 0 0 10.382223 73.054814c25.6 86.897778 93.961481 147.531852 164.882962 147.531852 71.822222 0 138.951111-59.97037 162.654815-147.958518a267.235556 267.235556 0 0 0 9.007408-69.12c0-9.481481-0.521481-18.678519-1.422223-27.733334z" fill="#FBD5B9" /><path d="M406.234074 367.834074a46.08 46.08 0 0 1 17.256296-12.894815 53.522963 53.522963 0 0 1 21.475556-4.74074 48.355556 48.355556 0 0 1 21.617778 4.74074 46.222222 46.222222 0 0 1 16.971852 12.894815c-3.555556-0.948148-6.637037-2.465185-9.955556-3.413333s-6.352593-2.085926-9.481481-2.654815a76.657778 76.657778 0 0 0-18.962963-2.085926 91.828148 91.828148 0 0 0-18.962963 2.228148 169.813333 169.813333 0 0 0-19.958519 5.925926zM540.444444 367.834074a46.08 46.08 0 0 1 17.256297-12.894815 53.76 53.76 0 0 1 21.522963-4.74074 48.260741 48.260741 0 0 1 21.57037 4.74074 45.842963 45.842963 0 0 1 17.161482 13.037037c-3.555556-0.948148-6.637037-2.465185-9.908149-3.413333s-6.4-2.085926-9.481481-2.654815a77.131852 77.131852 0 0 0-18.962963-2.085926 92.254815 92.254815 0 0 0-19.247407 2.228148 169.813333 169.813333 0 0 0-19.911112 5.783704z" fill="#54393A" /><path d="M511.241481 487.537778a23.22963 23.22963 0 0 1-12.183703-2.939259 16.355556 16.355556 0 0 1-5.12-20.811852c8.580741-18.157037 7.111111-36.551111 5.404444-56.082963v-2.702223l4.740741-0.426666v2.749629c1.754074 19.958519 3.413333 38.826667-5.831111 58.311112a11.662222 11.662222 0 0 0 3.271111 14.743703c6.637037 4.02963 18.725926 1.848889 27.022222-1.232592l1.659259 4.456296a58.88 58.88 0 0 1-18.962963 3.934815z" fill="#E6A996" /><path d="M435.816296 420.266667a24.651852 9.14963 90 1 0 18.29926 0 24.651852 9.14963 90 1 0-18.29926 0Z" fill="#54393A" /><path d="M440.367407 405.522963a2.275556 1.896296 0 1 0 4.551112 0 2.275556 1.896296 0 1 0-4.551112 0Z" fill="#FFFFFF" /><path d="M569.884444 420.266667a24.651852 9.14963 90 1 0 18.29926 0 24.651852 9.14963 90 1 0-18.29926 0Z" fill="#54393A" /><path d="M574.435556 405.522963a2.275556 1.896296 0 1 0 4.551111 0 2.275556 1.896296 0 1 0-4.551111 0Z" fill="#FFFFFF" /><path d="M504.367407 551.063704a50.346667 50.346667 0 0 1-22.66074-4.740741l2.275555-4.171852c0.995556 0.521481 24.414815 12.705185 55.940741-6.637037l2.465185 4.077037a72.438519 72.438519 0 0 1-38.020741 11.472593z" fill="#E6A996" /><path d="M594.583704 645.641481h-0.426667v0.758519l-27.06963 37.025185c-33.706667 33.46963-75.093333 32.568889-108.278518-2.56L431.407407 647.158519v-1.611852h-1.042963c-171.235556 10.382222-323.697778 143.36-323.697777 304.734814v6.352593h810.998518v-6.352593c0-160.948148-152.272593-293.831111-323.081481-304.64z" fill="#FFCEAA" /><path d="M636.823704 166.447407a197.783704 197.783704 0 0 0-250.121482 0c-16.64 13.842963-29.108148 35.034074-38.542222 54.044445C322.986667 271.17037 317.62963 329.197037 325.925926 384.663704a514.797037 514.797037 0 0 0 16.545185 68.503703 711.111111 711.111111 0 0 1 24.272593-93.25037c4.740741-14.222222 9.860741-27.685926 15.265185-41.386667 1.327407-3.413333 7.442963-25.6 11.946667-25.742222 7.111111 0 15.881481 3.460741 22.897777 4.740741 15.028148 2.74963 30.151111 5.783704 45.368889 7.727407a384.711111 384.711111 0 0 0 104.296297-1.232592c14.980741-2.180741 29.961481-4.456296 44.847407-7.348148 1.564444-0.331852 17.398519-5.072593 18.394074-3.934815 4.740741 5.451852 8.201481 18.962963 11.377778 25.6a420.077037 420.077037 0 0 1 25.220741 70.589629c2.844444 10.998519 5.404444 22.945185 7.964444 34.322963 1.848889 7.964444 9.481481 24.035556 6.874074 32.094815 65.042963-192.379259-44.373333-288.900741-44.373333-288.900741z" fill="#39334C" /><path d="M734.53037 844.894815c0-54.044444 20.811852-101.736296 52.574815-130.085926l-9.623704-6.731852-1.517037-1.042963c-3.365926-2.228148-6.779259-4.408889-10.192592-6.494815l-1.611852-0.995555c-3.508148-2.180741-7.063704-4.266667-10.666667-6.305185l-1.232592-0.663704c-3.745185-2.133333-7.585185-4.171852-11.472593-6.162963a378.927407 378.927407 0 0 0-76.894815-29.392593c-37.925926 33.185185-91.780741 53.522963-151.703703 53.522963s-113.777778-20.622222-151.703704-53.57037A374.518519 374.518519 0 0 0 256.331852 701.62963l-0.426667 0.237037c-3.602963 2.275556-7.158519 4.740741-10.714074 7.016296l-1.611852 1.09037c-2.275556 1.564444-4.456296 3.176296-6.684444 4.740741 31.715556 28.444444 52.574815 75.851852 52.574815 130.085926a184.035556 184.035556 0 0 1-35.650371 111.881481h516.361482a184.035556 184.035556 0 0 1-35.650371-111.786666z" fill="#F9AF3F" /></svg>