<svg class="svg-icon" style="width: 1em;height: 1em;vertical-align: middle;fill: currentColor;overflow: hidden;" viewBox="0 0 1024 1024" version="1.1" xmlns="http://www.w3.org/2000/svg"><path d="M445.62963 648.533333c0-6.305185 0.426667-30.862222 0.426666-38.874074a145.445926 145.445926 0 0 0-1.374815-18.251852c-0.568889-4.740741-41.197037-19.911111-45.511111-21.617777-31.383704-12.562963-63.715556-24.50963-95.146666-37.025186-17.256296-6.874074-36.219259-11.994074-53.475556-18.962963-2.654815-1.042963-8.580741-4.740741-11.472592-4.74074a115.2 115.2 0 0 1-9.33926 7.68c-30.388148 22.897778-80.971852 33.754074-79.739259 83.342222 0.711111 30.008889 23.087407 54.992593 21.665185 85.333333-1.374815 29.202963-28.16 40.580741-48.877037 53.001482-27.06963 16.260741-37.925926 43.946667-32.805926 76.8 7.632593 48.592593 37.025185 120.557037 92.112593 120.035555C222.814815 934.542222 426.666667 934.731852 445.62963 896c0-51.2-0.663704-126.625185-0.663704-182.613333-0.094815-18.915556 0.663704-43.140741 0.663704-64.853334zM583.111111 648.533333c0-6.305185-0.426667-30.862222-0.426667-38.874074a145.445926 145.445926 0 0 1 1.374815-18.251852c0.568889-4.740741 42.192593-21.048889 46.506667-22.755555 31.431111-12.562963 63.715556-23.134815 95.146667-35.697778 17.256296-6.874074 35.223704-12.183704 52.48-18.962963 2.654815-1.042963 8.580741-4.740741 11.472592-4.740741a115.2 115.2 0 0 0 9.14963 7.205926c23.703704 17.872593 60.918519 26.737778 74.192592 56.888889 18.962963 42.666667-31.099259 86.139259-11.425185 129.848889 7.253333 15.976296 22.139259 16.877037 35.271111 24.367407a76.98963 76.98963 0 0 1 33.185186 41.671112c8.201481 23.703704 6.494815 50.394074-0.758519 74.477037-11.899259 39.300741-37.925926 91.448889-82.868148 91.022222-40.580741-0.426667-244.527407-0.237037-263.442963-38.921482 0-51.2 0.663704-126.625185 0.663704-182.613333-0.18963-18.725926-0.521481-42.951111-0.521482-64.663704z" fill="#39334C" /><path d="M596.66963 623.786667v-95.241482H432.308148v95.336296c-171.567407 10.145185-324.077037 143.217778-324.077037 304.687408v6.4H919.703704v-6.4c0-160.995556-152.32-293.878519-323.034074-304.782222z" fill="#FFCEAA" /><path d="M431.407407 521.102222l0.711112 59.401482c20.574815 26.453333 67.792593 44.894815 122.927407 44.894815a252.397037 252.397037 0 0 0 41.434074-5.357038V512H440.888889a79.312593 79.312593 0 0 0-9.481482 9.102222z" fill="#FFB888" /><path d="M685.937778 358.020741C674.702222 246.518519 597.333333 160.521481 514.37037 160.521481c-83.531852 0-162.74963 85.001481-173.037037 197.49926-0.711111 7.964444-1.09037 16.023704-1.09037 24.177778A260.740741 260.740741 0 0 0 350.814815 455.111111c25.41037 86.992593 93.961481 147.531852 164.882963 147.531852 71.822222 0 138.951111-59.97037 162.654815-148.005926a266.571852 266.571852 0 0 0 9.007407-69.214815c0.047407-9.197037-0.521481-18.394074-1.422222-27.401481z" fill="#FBD5B9" /><path d="M406.897778 346.074074a45.985185 45.985185 0 0 1 17.256296-12.847407 53.76 53.76 0 0 1 21.522963-4.740741 48.877037 48.877037 0 0 1 21.57037 4.740741 47.407407 47.407407 0 0 1 17.161482 12.847407c-3.555556-0.900741-6.637037-2.417778-9.908148-3.365926a94.151111 94.151111 0 0 0-9.481482-2.654815 74.951111 74.951111 0 0 0-18.962963-2.085926 89.173333 89.173333 0 0 0-19.247407 2.228149 179.2 179.2 0 0 0-19.911111 5.878518zM540.965926 346.074074a45.795556 45.795556 0 0 1 17.208889-12.847407 53.94963 53.94963 0 0 1 21.522963-4.740741 48.924444 48.924444 0 0 1 21.617778 4.740741 47.075556 47.075556 0 0 1 17.114074 12.847407c-3.555556-0.900741-6.58963-2.417778-9.908149-3.365926a90.927407 90.927407 0 0 0-9.481481-2.654815 74.951111 74.951111 0 0 0-18.962963-2.085926 89.505185 89.505185 0 0 0-19.247407 2.228149 178.441481 178.441481 0 0 0-19.863704 5.878518z" fill="#54393A" /><path d="M512 465.588148a23.04 23.04 0 0 1-12.136296-2.939259 16.260741 16.260741 0 0 1-5.12-20.811852c8.675556-18.299259 7.111111-36.598519 5.404444-55.893333v-2.74963l4.740741-0.379259 0.284444 2.702222c1.706667 20.005926 3.365926 38.874074-5.878518 58.358519a11.662222 11.662222 0 0 0 3.318518 14.743703c6.58963 4.02963 18.678519 1.848889 27.022223-1.232592l1.659259 4.456296a59.259259 59.259259 0 0 1-19.294815 3.745185z" fill="#E6A996" /><path d="M436.527407 398.317037a24.651852 9.14963 90 1 0 18.29926 0 24.651852 9.14963 90 1 0-18.29926 0Z" fill="#54393A" /><path d="M441.078519 383.573333a2.275556 1.896296 0 1 0 4.551111 0 2.275556 1.896296 0 1 0-4.551111 0Z" fill="#FFFFFF" /><path d="M570.548148 398.317037a24.651852 9.14963 90 1 0 18.299259 0 24.651852 9.14963 90 1 0-18.299259 0Z" fill="#54393A" /><path d="M575.099259 383.573333a2.275556 1.896296 0 1 0 4.551111 0 2.275556 1.896296 0 1 0-4.551111 0Z" fill="#FFFFFF" /><path d="M505.031111 529.114074a50.251852 50.251852 0 0 1-22.613333-4.740741l2.228148-4.171852c0.995556 0.521481 24.414815 12.705185 55.940741-6.637037l2.465185 4.02963a72.011852 72.011852 0 0 1-38.020741 11.52z" fill="#E6A996" /><path d="M787.674074 419.65037c12.752593-53.048889-2.085926-105.860741-29.108148-154.405926a609.754074 609.754074 0 0 0-83.484445-117.665185c-27.780741-29.62963-62.577778-58.642963-104.296296-58.548148a210.014815 210.014815 0 0 0-56.888889 8.580741 210.014815 210.014815 0 0 0-56.888889-8.580741c-49.588148 0-88.035556 39.585185-118.992592 75.851852A621.416296 621.416296 0 0 0 258.939259 284.444444c-19.342222 38.21037-32.142222 83.531852-22.708148 126.957037 7.442963 34.417778 35.745185 66.654815 2.654815 98.085926l193.422222 74.571852v-9.481481a257.801481 257.801481 0 0 1-69.546667-86.945185c-13.226667-34.133333-37.594074-91.401481-21.238518-138.287408l0.568889-1.611852 1.706667-4.74074c0.948148-2.37037 1.896296-4.740741 2.891851-7.063704s2.607407-5.973333 4.124445-8.817778 3.460741-7.158519 5.262222-10.714074S360.296296 308.148148 362.477037 304.355556s5.072593-8.438519 7.774815-12.562963 5.878519-8.628148 9.007407-12.8 6.731852-8.533333 10.334815-12.610371a162.37037 162.37037 0 0 1 11.614815-11.946666 142.554074 142.554074 0 0 1 12.942222-10.856297 128.758519 128.758519 0 0 1 14.222222-9.481481 117.333333 117.333333 0 0 1 15.644445-7.300741 106.002963 106.002963 0 0 1 17.066666-4.740741 104.296296 104.296296 0 0 1 18.441482-1.896296 111.407407 111.407407 0 0 1 19.863704 1.422222c3.271111 0.521481 6.447407 1.327407 9.481481 1.896297a31.668148 31.668148 0 0 0 10.145185 0c5.30963-0.758519 10.477037-1.943704 15.786667-2.512593a105.481481 105.481481 0 0 1 19.342222-0.379259 103.774815 103.774815 0 0 1 17.872593 2.749629 113.019259 113.019259 0 0 1 16.545185 5.546667 123.97037 123.97037 0 0 1 15.17037 7.822222 138.998519 138.998519 0 0 1 13.795556 9.481482 153.884444 153.884444 0 0 1 12.98963 11.33037c3.887407 3.84 7.632593 7.86963 11.188148 12.041482s6.731852 8.296296 9.908148 12.61037 5.878519 8.391111 8.628148 12.705185 5.072593 8.154074 7.395556 12.373333 4.219259 7.632593 6.21037 11.52 3.365926 6.874074 4.740741 10.334815 2.607407 5.736296 3.792592 8.628148 1.801481 4.361481 2.607408 6.542223c0.521481 1.327407 0.995556 2.654815 1.469629 3.982222l0.37926 0.995555c16.355556 46.885926-5.641481 100.361481-19.674075 134.58963-25.125926 53.522963-70.637037 92.681481-70.447407 92.539259v7.016297l192.711111-73.908149c-17.967407-17.114074-19.768889-41.291852-10.477037-63.288888a168.865185 168.865185 0 0 0 8.722963-26.548149z" fill="#39334C" /><path d="M341.333333 358.020741c-15.028148 1.517037-29.866667 10.619259-27.448889 41.623703 0 0-2.133333 43.851852 36.740741 55.656297a260.740741 260.740741 0 0 1-10.382222-73.102222c0.18963-8.154074 0.568889-16.213333 1.09037-24.177778zM685.937778 358.020741c0.900741 9.054815 1.422222 18.251852 1.422222 27.591111a267.235556 267.235556 0 0 1-9.007407 69.499259c37.404444-12.420741 35.365926-55.182222 35.365926-55.182222 2.465185-31.478519-12.657778-40.485926-27.780741-41.908148z" fill="#FFCEAA" /><path d="M663.04 240.023704c-28.444444-22.139259-57.505185-36.645926-79.312593-41.102223 11.567407-18.157037 15.217778-34.133333 8.722963-45.368888-17.114074-29.724444-98.797037-14.696296-182.423703 33.611851S272.545185 298.666667 289.706667 328.343704 388.740741 343.04 472.177778 294.779259a423.68 423.68 0 0 0 81.445926-60.16c9.481481 20.337778 30.90963 45.795556 60.207407 68.598519 47.691852 37.12 97.327407 53.001481 110.933333 35.555555s-14.08-61.677037-61.724444-98.749629z" fill="#39334C" /><path d="M605.25037 624.45037l-82.868148 97.090371a11.282963 11.282963 0 0 1-17.161481 0l-82.583704-97.042963c-167.395556 14.554074-314.405926 145.540741-314.405926 303.976296v6.4H919.703704v-6.4c0-158.293333-147.247407-289.327407-314.453334-304.023704z" fill="#FF7157" /><path d="M422.637037 624.497778a347.496296 347.496296 0 0 0-74.334815 14.222222L431.407407 786.962963l81.066667-61.62963zM605.297778 624.45037a347.496296 347.496296 0 0 1 74.334815 14.222223L596.337778 786.962963l-81.066667-61.62963z" fill="#FFFFFF" /><path d="M501.048889 735.905185h28.444444v199.063704h-28.444444z" fill="#FFFFFF" /><path d="M510.151111 740.788148s-49.019259-73.054815-83.816296-65.754074c0 0-15.502222 8.154074-18.962963 34.038519 0 0 12.231111 39.016296 96.047407 43.235555z" fill="#FFC0B8" /><path d="M503.608889 736.568889l-0.758519-0.284445c-5.878519-2.085926-46.743704-13.795556-116.337777 36.408889L407.703704 780.8l-25.457778 46.506667s104.77037-69.214815 121.505185-70.352593M517.641481 740.788148s49.019259-73.054815 83.816297-65.754074c0 0 15.502222 8.154074 18.962963 34.038519 0 0-12.231111 39.016296-96.047408 43.235555z" fill="#FFC0B8" /><path d="M524.183704 736.568889l0.711111-0.284445c5.878519-2.085926 46.791111-13.795556 116.385185 36.408889l-21.048889 8.106667 25.457778 46.506667s-104.77037-69.214815-121.505185-70.352593" fill="#FFC0B8" /><path d="M501.617778 725.048889s21.902222-6.305185 27.211852-0.995556c0 0 7.49037 25.694815 4.74074 31.715556 0 0-27.259259 8.533333-34.607407-1.28-0.094815 0-0.900741-24.794074 2.654815-29.44z" fill="#FFAAA6" /></svg>