<svg class="svg-icon" style="width: 1em;height: 1em;vertical-align: middle;fill: currentColor;overflow: hidden;" viewBox="0 0 1024 1024" version="1.1" xmlns="http://www.w3.org/2000/svg"><path d="M857.031111 647.632593c-22.186667-13.463704-49.967407-19.2-74.714074-11.235556a19.816296 19.816296 0 0 1-11.70963 1.611852 17.540741 17.540741 0 0 1-7.063703-5.12c-12.325926-12.61037-34.56-28.776296-41.291852-45.226667-15.739259-38.447407 14.222222-84.764444 22.091852-122.216296 19.721481-95.81037 24.651852-215.134815-34.370371-298.951111a125.44 125.44 0 0 0-19.958518-24.272593l-0.237037-0.284444a95.81037 95.81037 0 0 0-11.851852-10.524445 259.365926 259.365926 0 0 0-28.823704-20.385185c-25.931852-15.786667-56.888889-20.242963-87.419259-19.484444a73.718519 73.718519 0 0 1-20.195556-1.185185 107.614815 107.614815 0 0 1-14.885926-5.831112c-55.893333-23.277037-137.481481 8.675556-179.342222 47.407408-3.602963 2.986667-7.016296 6.115556-10.382222 9.244444a113.777778 113.777778 0 0 0-21.096296 23.134815C252.681481 244.385185 253.487407 359.585185 276.337778 457.339259c9.481481 41.244444 42.666667 86.613333 25.694815 129.611852-5.925926 14.838519-18.631111 22.755556-28.871112 33.991111-2.797037 3.128889-13.131852 20.717037-18.157037 18.962963-87.656296-33.185185-139.093333 64-139.093333 64 79.028148 26.263704 127.620741-23.182222 145.351111-46.554074l2.56 4.02963c17.777778-3.745185 86.376296-45.605926 86.376297-45.605926C383.051852 588.325926 460.468148 606.814815 460.468148 606.814815l-50.583704-51.674074-5.973333-19.437037-8.580741 0.948148-2.512592 3.128889-26.832593-88.983704 15.597037-94.814815-34.702222-36.124444 10.903704-74.42963 221.155555-53.712592 106.524445 117.285925-4.740741 11.52-1.943704-0.948148-34.986666 36.361482 15.644444 94.814815-26.88 88.888889-2.465185-3.081482-8.580741-0.948148-5.973333 19.579259L565.143704 606.814815s77.416296-18.583704 110.317037 8.722963c21.76 18.062222 61.202963 40.865185 89.505185 42.666666a130.228148 130.228148 0 0 0 145.019259 45.511112c-13.558519-22.091852-30.72-42.619259-52.954074-56.082963z" fill="#54393A" /><path d="M429.842963 541.013333h164.361481v234.808889H429.842963z" fill="#FFCEAA" /><path d="M429.179259 533.76l0.426667 59.259259c20.574815 26.453333 68.077037 44.98963 123.259259 44.98963a228.788148 228.788148 0 0 0 41.386667-5.546667v-107.946666H438.565926a75.425185 75.425185 0 0 0-9.386667 9.244444z" fill="#FFB888" /><path d="M340.148148 370.583704c-14.980741 1.517037-29.866667 10.619259-27.401481 41.623703 0 0-2.180741 43.851852 36.693333 55.656297a261.12 261.12 0 0 1-10.382222-73.102223c0-8.201481 0.379259-16.260741 1.09037-24.177777zM684.562963 370.536296a266.619259 266.619259 0 0 1-7.585185 96.853334C714.42963 455.111111 712.343704 412.444444 712.343704 412.444444c2.465185-31.478519-12.61037-40.485926-27.780741-41.908148z" fill="#FFCEAA" /><path d="M684.041481 370.536296c-11.235556-111.265185-88.841481-197.499259-171.567407-197.499259-83.531852 0-162.74963 85.001481-172.847407 197.546667-0.711111 7.917037-1.09037 15.976296-1.090371 24.177777a261.12 261.12 0 0 0 10.382223 73.102223C374.518519 554.666667 442.88 615.348148 513.801481 615.348148c71.822222 0 138.951111-59.97037 162.654815-147.958518a267.235556 267.235556 0 0 0 9.007408-69.167408c0-9.481481-0.521481-18.631111-1.422223-27.685926z" fill="#FBD5B9" /><path d="M406.234074 358.4a46.08 46.08 0 0 1 17.256296-12.894815 53.522963 53.522963 0 0 1 21.475556-4.740741 48.971852 48.971852 0 0 1 21.617778 4.740741A46.222222 46.222222 0 0 1 483.555556 358.4c-3.555556-0.948148-6.637037-2.465185-9.955556-3.413333s-6.352593-2.038519-9.481481-2.654815a76.657778 76.657778 0 0 0-18.962963-2.085926 91.828148 91.828148 0 0 0-18.962963 2.228148 169.813333 169.813333 0 0 0-19.958519 5.925926zM540.444444 358.4a46.08 46.08 0 0 1 17.256297-12.894815 53.76 53.76 0 0 1 21.522963-4.740741 48.924444 48.924444 0 0 1 21.57037 4.740741 46.222222 46.222222 0 0 1 17.161482 13.037037c-3.555556-0.948148-6.637037-2.465185-9.908149-3.413333s-6.4-2.038519-9.481481-2.654815a77.131852 77.131852 0 0 0-18.962963-2.085926 92.254815 92.254815 0 0 0-19.247407 2.228148 169.813333 169.813333 0 0 0-19.911112 5.783704z" fill="#54393A" /><path d="M511.241481 478.103704a23.22963 23.22963 0 0 1-12.183703-2.93926 16.355556 16.355556 0 0 1-5.12-20.811851c8.722963-18.299259 7.111111-36.551111 5.451852-55.845926v-2.74963l4.74074-0.426667v2.74963c1.754074 19.958519 3.413333 38.826667-5.831111 58.311111a11.662222 11.662222 0 0 0 3.271111 14.743704c6.637037 4.02963 18.725926 1.848889 27.022223-1.232593l1.659259 4.456297a58.88 58.88 0 0 1-19.010371 3.745185z" fill="#E6A996" /><path d="M435.816296 410.832593a24.651852 9.14963 90 1 0 18.29926 0 24.651852 9.14963 90 1 0-18.29926 0Z" fill="#54393A" /><path d="M440.367407 396.088889a2.275556 1.896296 0 1 0 4.551112 0 2.275556 1.896296 0 1 0-4.551112 0Z" fill="#FFFFFF" /><path d="M569.884444 410.832593a24.651852 9.14963 90 1 0 18.29926 0 24.651852 9.14963 90 1 0-18.29926 0Z" fill="#54393A" /><path d="M574.435556 396.088889a2.275556 1.896296 0 1 0 4.551111 0 2.275556 1.896296 0 1 0-4.551111 0Z" fill="#FFFFFF" /><path d="M504.367407 541.62963a50.346667 50.346667 0 0 1-22.66074-4.740741l2.275555-4.171852c0.995556 0.568889 24.367407 12.705185 55.940741-6.58963l2.465185 4.02963a72.438519 72.438519 0 0 1-38.020741 11.472593z" fill="#E6A996" /><path d="M561.493333 947.342222H463.17037l-33.185185-163.508148-0.284444-147.579259 28.444444 35.223704c33.185185 35.128889 74.524444 36.077037 108.278519 2.56l27.354074-37.925926 3.460741 155.591111z" fill="#FFFFFF" /><path d="M594.157037 636.207407l-39.158518 311.134815h362.666666v-6.352592c0-161.09037-152.699259-293.973333-323.508148-304.782223zM429.842963 636.254815c-171.235556 10.382222-323.508148 143.407407-323.508148 304.734815v6.352592h363.757037s-39.917037-311.134815-40.248889-311.087407z" fill="#FF7157" /><path d="M743.111111 801.611852a8.106667 8.106667 0 0 1 8.296296 8.106667c0 5.499259-4.740741 9.955556-12.42074 16.64l-0.474074 0.426666-2.180741 1.943704-2.180741-1.943704-1.137778-0.995555c-7.111111-6.4-11.757037-10.714074-11.757037-16.071111a8.106667 8.106667 0 0 1 8.296297-8.106667 9.054815 9.054815 0 0 1 6.779259 3.081481 9.054815 9.054815 0 0 1 6.779259-3.081481z" fill="#FFFFFF" /><path d="M664.272593 277.94963l22.945185-104.296297-104.296297-22.945185-3.745185 17.114074v-5.594074a7.205926 7.205926 0 0 0-7.205926-7.158518H437.096296a7.205926 7.205926 0 0 0-7.205926 7.158518v22.945185h-80.592592V237.037037h43.425185l-35.081482 8.533333-12.705185 87.277037a94.388148 94.388148 0 0 1 40.628148-8.912592l7.300741-30.482963 8.248889 31.241481q28.444444 1.422222 58.168889 2.133334c4.361481-16.734815 22.565926-83.437037 38.447407-90.074074l0.426667 90.453333h27.448889l21.997037-30.957037 10.666667 30.862222q36.882963-0.711111 72.438518-2.56v-46.980741s16.877037 24.462222 21.997037 45.558519a62.151111 62.151111 0 0 1 25.457778 4.740741l7.300741-18.678519-29.914074-33.185185z" fill="#54393A" /><path d="M759.608889 619.282963c1.042963 6.115556 2.085926 12.183704 3.176296 18.251852a12.847407 12.847407 0 0 0-8.106666 7.395555 13.368889 13.368889 0 0 0 1.801481 12.562963l-10.002963 9.481482c-7.774815 7.253333-16.971852 13.416296-21.807407 23.182222a14.743704 14.743704 0 0 0-1.706667 9.955556c1.706667 7.111111 10.097778 6.731852 15.739259 5.973333 1.042963 0 14.648889-3.555556 14.648889-3.602963 3.65037 6.305185 9.813333 20.717037 18.962963 19.38963a10.571852 10.571852 0 0 0 7.348148-6.874074c4.408889-10.002963 2.607407-21.475556 0.853334-31.905186q-1.564444-9.481481-3.271112-18.962963a12.894815 12.894815 0 0 0 7.300741-7.063703 13.226667 13.226667 0 0 0-1.28-11.804445l10.42963-9.765926c7.727407-7.205926 16.924444-13.368889 21.76-23.134815a15.217778 15.217778 0 0 0 1.754074-10.002962c-1.754074-7.063704-10.097778-6.684444-15.786667-5.973334-1.042963 0-14.648889 3.602963-14.648889 3.650371-3.65037-6.352593-9.813333-20.764444-18.962963-19.437037a10.714074 10.714074 0 0 0-7.348148 6.921481c-4.408889 9.813333-2.56 21.380741-0.853333 31.762963zM266.002963 619.33037q-1.46963 9.102222-3.128889 18.204445a12.847407 12.847407 0 0 1 8.059259 7.395555 13.226667 13.226667 0 0 1-1.754074 12.562963l10.002963 9.481482c7.727407 7.205926 16.924444 13.368889 21.76 23.134815a15.217778 15.217778 0 0 1 1.754074 10.002963c-1.754074 7.063704-10.097778 6.684444-15.786666 5.925926-1.042963 0-14.648889-3.555556-14.601482-3.602963-3.65037 6.352593-9.860741 20.717037-18.962963 19.389629a10.571852 10.571852 0 0 1-7.348148-6.874074c-4.361481-10.002963-2.56-21.475556-0.805926-31.857778 1.042963-6.352593 2.133333-12.657778 3.271111-18.962963a13.037037 13.037037 0 0 1-7.348148-7.016296 13.179259 13.179259 0 0 1 1.327407-11.851852L231.822222 635.259259c-7.727407-7.205926-16.924444-13.368889-21.76-23.134815a15.122963 15.122963 0 0 1-1.754074-10.002963c1.706667-7.063704 10.097778-6.684444 15.786667-5.925925 0.995556 0 14.648889 3.555556 14.601481 3.602963 3.65037-6.305185 9.860741-20.717037 18.962963-19.38963a10.382222 10.382222 0 0 1 7.300741 6.874074c4.598519 10.05037 2.797037 21.617778 1.042963 32.047407z" fill="#EFAC25" /></svg>