<svg class="svg-icon" style="width: 1em;height: 1em;vertical-align: middle;fill: currentColor;overflow: hidden;" viewBox="0 0 1024 1024" version="1.1" xmlns="http://www.w3.org/2000/svg"><path d="M595.105185 630.945185H430.791111c-171.235556 10.382222-323.697778 143.36-323.697778 304.734815v6.352593h809.813334v-4.361482c0-161.042963-150.992593-295.917037-321.801482-306.725926z" fill="#FFCEAA" /><path d="M430.696296 550.162963h164.361482v234.808889H430.696296z" fill="#FFCEAA" /><path d="M430.127407 542.672593l0.711112 59.401481c20.574815 26.453333 67.792593 44.894815 122.927407 44.894815a234.287407 234.287407 0 0 0 41.386667-5.546667l-0.237037-107.994074H439.561481a75.851852 75.851852 0 0 0-9.434074 9.244445zM347.401481 378.595556c-15.028148 1.517037-29.866667 10.619259-27.401481 41.671111 0 0-2.180741 43.851852 36.693333 55.608889A260.740741 260.740741 0 0 1 346.311111 402.962963c0-8.343704 0.379259-16.402963 1.09037-24.367407zM677.925926 379.259259c0.900741 9.054815 1.422222 18.251852 1.422222 27.591111a266.951111 266.951111 0 0 1-9.007407 69.262223c37.404444-12.373333 35.318519-55.182222 35.318518-55.182223 2.512593-31.478519-12.61037-40.485926-27.733333-41.671111z" fill="#FFB888" /><path d="M678.305185 379.685926c-10.808889-111.312593-87.561481-159.857778-167.111111-159.857778-80.308148 0-154.358519 47.407407-164.02963 159.857778-0.663704 7.964444-1.042963 16.023704-1.042963 24.225185a269.795556 269.795556 0 0 0 9.955556 73.054815c24.462222 86.992593 90.358519 147.531852 158.53037 147.531852 69.072593 0 133.641481-59.97037 156.444445-147.958519a277.94963 277.94963 0 0 0 8.675555-69.262222 310.613333 310.613333 0 0 0-1.422222-27.591111z" fill="#FFCEAA" /><path d="M407.134815 367.54963a45.937778 45.937778 0 0 1 17.208889-12.894815 53.94963 53.94963 0 0 1 21.522963-4.740741 48.355556 48.355556 0 0 1 21.617777 4.740741 46.08 46.08 0 0 1 17.114075 13.037037c-3.555556-0.948148-6.58963-2.465185-9.908149-3.413333a90.927407 90.927407 0 0 0-9.481481-2.654815 77.131852 77.131852 0 0 0-18.962963-2.085926 92.634074 92.634074 0 0 0-19.247407 2.228148 169.14963 169.14963 0 0 0-19.863704 5.783704zM541.155556 367.54963a46.08 46.08 0 0 1 17.256296-12.894815 53.522963 53.522963 0 0 1 21.475555-4.740741 48.355556 48.355556 0 0 1 21.617778 4.740741 46.222222 46.222222 0 0 1 17.161482 13.037037c-3.555556-0.948148-6.637037-2.465185-9.908148-3.413333a97.659259 97.659259 0 0 0-9.481482-2.654815 77.274074 77.274074 0 0 0-18.962963-2.085926 92.16 92.16 0 0 0-18.962963 2.228148 169.813333 169.813333 0 0 0-20.195555 5.783704z" fill="#54393A" /><path d="M512 487.253333a23.22963 23.22963 0 0 1-12.183704-2.939259 16.260741 16.260741 0 0 1-5.12-20.811852c8.722963-18.299259 7.111111-36.551111 5.404445-55.893333v-2.74963l4.74074-0.379259v2.74963c1.754074 19.958519 3.413333 38.826667-5.878518 58.311111a11.70963 11.70963 0 0 0 3.318518 14.743703c6.637037 4.02963 18.678519 1.848889 27.022223-1.232592l1.659259 4.456296a58.88 58.88 0 0 1-18.962963 3.745185z" fill="#E6A996" /><path d="M436.717037 419.982222a24.651852 9.14963 90 1 0 18.299259 0 24.651852 9.14963 90 1 0-18.299259 0Z" fill="#54393A" /><path d="M441.268148 405.238519a2.275556 1.896296 0 1 0 4.551111 0 2.275556 1.896296 0 1 0-4.551111 0Z" fill="#FFFFFF" /><path d="M570.737778 419.982222a24.651852 9.14963 90 1 0 18.299259 0 24.651852 9.14963 90 1 0-18.299259 0Z" fill="#54393A" /><path d="M575.288889 405.238519a2.275556 1.896296 0 1 0 4.551111 0 2.275556 1.896296 0 1 0-4.551111 0Z" fill="#FFFFFF" /><path d="M505.268148 550.779259a50.346667 50.346667 0 0 1-22.660741-4.74074l2.275556-4.171852c0.948148 0.521481 24.367407 12.705185 55.893333-6.637037l2.512593 4.029629a72.248889 72.248889 0 0 1-38.020741 11.52z" fill="#E6A996" /><path d="M347.117037 427.472593l-6.162963-47.786667s-30.672593-29.534815-28.918518-103.253333c0 0-15.36-78.506667 48.971851-113.303704 0 0 12.705185-52.574815 70.637037-41.528889 0 0 11.757037-34.512593 42.666667-20.337778a14.648889 14.648889 0 0 1 17.303704-3.034074l16.071111 8.106667s24.13037-34.986667 39.822222-21.238519a20.859259 20.859259 0 0 1 28.444445 6.4 83.105185 83.105185 0 0 1 70.068148 37.404445S730.074074 180.148148 713.102222 314.785185c0 0-8.391111 55.514074-26.311111 65.706667l-7.727407 45.416296-2.228148-58.69037s-13.131852-20.574815-14.222223-24.130371c0 0-41.291852 6.494815-69.641481-63.146666 0 0 2.512593 38.352593 33.185185 54.755555l-27.875556-6.494815 4.740741 2.038519a29.914074 29.914074 0 0 1-16.829629-5.451852s8.248889 7.253333 12.847407 7.537778a39.395556 39.395556 0 0 1-15.36-3.081482s3.128889 4.740741 7.111111 5.451852a49.540741 49.540741 0 0 1-31.431111-5.641481 70.58963 70.58963 0 0 1-29.677037-36.408889s-7.063704 20.811852 31.004444 39.822222c0 0-30.103704-9.481481-39.822222-30.103704 0 0 3.508148 30.388148 41.576296 35.413334 0 0-13.653333 8.865185-49.303703-12.088889 0 0 9.197037 17.114074 34.275555 17.682963 0 0-43.377778 2.797037-66.37037-5.167408 0 0-35.887407-18.962963-46.032593-40.248888 0 0 16.782222 34.939259 42.903704 42.666666 0 0-36.266667 3.555556-64.616296-42.05037 0 0 6.21037 34.085926 33.185185 39.822222 0 0-22.992593 7.537778-58.405926-11.045926 0 0-21.238519 22.565926-35.413333 23.466667z" fill="#39334C" /><path d="M595.105185 630.945185s0.379259 5.641481 0.379259 8.912593a104.296296 104.296296 0 0 1-32.521481 75.851852 85.997037 85.997037 0 0 1-25.6 16.165926l-18.441482 31.478518-25.884444-29.771852a82.394074 82.394074 0 0 1-45.89037-35.176296 96.094815 96.094815 0 0 1-9.481482-18.204445 107.70963 107.70963 0 0 1-5.451852-18.962962c-0.521481-2.654815-4.456296-30.245926-1.564444-30.435556-171.235556 10.382222-323.602963 143.36-323.602963 304.734815v6.352592h809.860741v-4.361481c0-160.900741-150.992593-295.774815-321.801482-306.583704z" fill="#1F1E2C" /><path d="M595.105185 630.945185s5.546667 77.274074-61.297778 102.447408l67.602963 30.293333s38.305185-100.645926 38.305186-127.051852a254.672593 254.672593 0 0 0-44.610371-5.688889zM430.696296 630.992593s-5.499259 77.226667 61.297778 102.4l-67.602963 30.293333s-38.352593-100.740741-38.352592-127.146667a265.481481 265.481481 0 0 1 44.657777-5.546666z" fill="#CECECE" /><path d="M530.346667 791.798519m-5.262223 0a5.262222 5.262222 0 1 0 10.524445 0 5.262222 5.262222 0 1 0-10.524445 0Z" fill="#CECECE" /><path d="M525.084444 853.57037m-5.262222 0a5.262222 5.262222 0 1 0 10.524445 0 5.262222 5.262222 0 1 0-10.524445 0Z" fill="#CECECE" /><path d="M521.718519 769.09037s-9.054815-32.758519-32.474075-36.124444l-34.133333 17.588148s43.188148 35.65037 51.152593 69.973333" fill="#181823" /><path d="M508.254815 886.518519h-4.740741l0.237037-65.848889a226.654815 226.654815 0 0 1 31.525926-86.945186l3.934815 2.56c0 0.426667-25.505185 39.300741-30.72 84.66963z" fill="#181823" /></svg>