<svg class="svg-icon" style="width: 1em;height: 1em;vertical-align: middle;fill: currentColor;overflow: hidden;" viewBox="0 0 1024 1024" version="1.1" xmlns="http://www.w3.org/2000/svg"><path d="M772.740741 352.284444a26.358519 26.358519 0 0 0 0-41.813333 26.311111 26.311111 0 0 0-11.567408-32.18963 25.884444 25.884444 0 0 0 3.223704-12.657777 26.358519 26.358519 0 0 0-21.617778-25.931852 22.328889 22.328889 0 0 0 7.442963-16.308148c0-13.274074-12.325926-23.988148-27.591111-23.988148a32.379259 32.379259 0 0 0-3.697778 0.284444 0.616296 0.616296 0 0 0 0-0.284444 12.847407 12.847407 0 0 0-2.085926-7.016297 26.453333 26.453333 0 0 0-25.647407-25.078518 6.020741 6.020741 0 0 0-0.711111-2.702222 8.106667 8.106667 0 0 0-2.702222-2.986667 26.358519 26.358519 0 0 0-26.311111-24.746667 26.737778 26.737778 0 0 0-7.348149 1.042963 26.453333 26.453333 0 0 0-39.016296-20.195555 26.405926 26.405926 0 0 0-44.942222-16.213334l-0.568889-0.521481a26.453333 26.453333 0 0 0-20.906667-10.334815 26.168889 26.168889 0 0 0-15.502222 5.072593l-0.853333-0.37926a21.522963 21.522963 0 0 0-18.962963-10.334815 21.096296 21.096296 0 0 0-19.674074 11.994075 9.813333 9.813333 0 0 0-0.805926 1.137777 7.442963 7.442963 0 0 0-1.991111 0.853334 2.844444 2.844444 0 0 1-0.37926-0.37926A26.405926 26.405926 0 0 0 442.311111 104.296296a16.45037 16.45037 0 0 0-25.125926 4.740741 26.358519 26.358519 0 0 0-43.425185 20.195556v1.706666a26.358519 26.358519 0 0 0-35.697778 24.69926 16.308148 16.308148 0 0 0-2.133333 0.237037A21.143704 21.143704 0 0 0 306.583704 175.407407a23.703704 23.703704 0 0 0 0.426666 4.124445 18.962963 18.962963 0 0 0-4.029629-0.426667 21.902222 21.902222 0 0 0-20.385185 30.151111 24.794074 24.794074 0 0 0-3.223704-0.331852 23.703704 23.703704 0 0 0-23.703704 23.703704 23.371852 23.371852 0 0 0 8.343704 17.872593c0 1.042963 0 2.085926 0.284444 3.081481a26.405926 26.405926 0 0 0-11.614815 48.592593 26.405926 26.405926 0 0 0 2.038519 51.531852 26.311111 26.311111 0 0 0-0.853333 43.899259 26.405926 26.405926 0 0 0 19.721481 43.946667 28.065185 28.065185 0 0 0 6.684445-0.853334 26.405926 26.405926 0 0 0 12.989629 49.398519 30.72 30.72 0 0 0 3.650371-0.284445v4.456297c0 15.928889 10.05037 28.444444 28.776296 29.914074a32.426667 32.426667 0 0 0 25.78963-10.808889 234.42963 234.42963 0 0 0 324.266666-1.374815 35.318519 35.318519 0 0 0 24.367408 9.481481c18.299259 0 33.185185-12.894815 33.185185-28.823703a27.164444 27.164444 0 0 0-10.951111-21.380741c9.481481-2.607407 15.644444-7.964444 15.644444-14.222222a12.515556 12.515556 0 0 0-6.257778-9.860741 20.053333 20.053333 0 0 0 5.262223-2.844444 25.742222 25.742222 0 0 0 6.637037 0.90074 26.405926 26.405926 0 0 0 18.583703-45.226666 29.108148 29.108148 0 0 0 21.096297-26.737778 27.022222 27.022222 0 0 0-10.571852-21.001482z" fill="#39334C" /><path d="M430.696296 547.034074h164.361482v234.808889H430.696296z" fill="#FFCEAA" /><path d="M430.032593 539.543704l0.758518 59.354074c20.527407 26.500741 67.792593 44.942222 122.88 44.942222a229.30963 229.30963 0 0 0 41.386667-5.594074v-107.946667H439.466667a79.312593 79.312593 0 0 0-9.434074 9.244445zM347.401481 375.466667c-15.028148 1.517037-29.866667 10.619259-27.401481 41.623703 0 0-2.180741 43.899259 36.693333 55.656297a260.740741 260.740741 0 0 1-10.382222-73.102223c0-8.154074 0.379259-16.213333 1.09037-24.177777zM677.925926 375.893333c0.900741 9.054815 1.422222 18.251852 1.422222 27.591111a266.951111 266.951111 0 0 1-9.007407 69.262223c37.404444-12.373333 35.318519-55.182222 35.318518-55.182223 2.512593-31.241481-12.61037-40.248889-27.733333-41.671111z" fill="#FFB888" /><path d="M678.305185 376.557037c-10.808889-111.312593-85.333333-197.499259-164.93037-197.499259-80.592593 0-156.444444 85.001481-166.210371 197.499259a290.939259 290.939259 0 0 0-1.042963 24.177778 269.89037 269.89037 0 0 0 9.955556 73.339259c24.462222 86.992593 90.358519 147.531852 158.53037 147.531852 69.072593 0 133.641481-59.97037 156.444445-147.958519a277.94963 277.94963 0 0 0 8.675555-69.262222c-0.047407-9.623704-0.568889-18.820741-1.422222-27.828148z" fill="#FFCEAA" /><path d="M407.134815 364.373333a45.795556 45.795556 0 0 1 17.208889-12.847407 53.94963 53.94963 0 0 1 21.522963-4.740741 48.924444 48.924444 0 0 1 21.617777 4.740741 47.075556 47.075556 0 0 1 17.114075 13.037037c-3.555556-0.900741-6.58963-2.417778-9.908149-3.365926a90.927407 90.927407 0 0 0-9.481481-2.654815 74.951111 74.951111 0 0 0-18.962963-2.085926 92.634074 92.634074 0 0 0-19.247407 2.228148 178.441481 178.441481 0 0 0-19.863704 5.688889zM541.155556 364.373333a45.985185 45.985185 0 0 1 17.256296-12.847407 53.522963 53.522963 0 0 1 21.475555-4.740741 48.924444 48.924444 0 0 1 21.617778 4.740741 47.407407 47.407407 0 0 1 17.161482 13.037037c-3.555556-0.900741-6.637037-2.417778-9.908148-3.365926a97.659259 97.659259 0 0 0-9.481482-2.654815 75.093333 75.093333 0 0 0-18.962963-2.085926 92.16 92.16 0 0 0-18.962963 2.228148 179.2 179.2 0 0 0-20.195555 5.688889z" fill="#54393A" /><path d="M512 484.124444a23.22963 23.22963 0 0 1-12.183704-2.939259 16.260741 16.260741 0 0 1-5.12-20.811852c8.722963-18.299259 7.111111-36.551111 5.404445-55.893333v-2.74963l4.74074-0.379259v2.74963c1.754074 19.958519 3.413333 38.826667-5.878518 58.311111a11.70963 11.70963 0 0 0 3.318518 14.743704c6.637037 4.02963 18.678519 1.848889 27.022223-1.232593l1.659259 4.456296a58.88 58.88 0 0 1-18.962963 3.745185z" fill="#E6A996" /><path d="M436.717037 416.853333a24.651852 9.14963 90 1 0 18.299259 0 24.651852 9.14963 90 1 0-18.299259 0Z" fill="#54393A" /><path d="M441.268148 402.10963a2.275556 1.896296 0 1 0 4.551111 0 2.275556 1.896296 0 1 0-4.551111 0Z" fill="#FFFFFF" /><path d="M570.737778 416.853333a24.651852 9.14963 90 1 0 18.299259 0 24.651852 9.14963 90 1 0-18.299259 0Z" fill="#54393A" /><path d="M575.288889 402.10963a2.275556 1.896296 0 1 0 4.551111 0 2.275556 1.896296 0 1 0-4.551111 0Z" fill="#FFFFFF" /><path d="M505.268148 547.65037a50.346667 50.346667 0 0 1-22.660741-4.74074l2.275556-4.171852c0.995556 0.521481 24.367407 12.705185 55.893333-6.637037l2.512593 4.029629a72.248889 72.248889 0 0 1-38.020741 11.52z" fill="#E6A996" /><path d="M708.740741 281.884444a49.825185 49.825185 0 0 0 0.995555-10.05037A50.915556 50.915556 0 0 0 658.962963 220.918519a51.674074 51.674074 0 0 0-12.183704 1.517037 50.773333 50.773333 0 0 0-78.317037-39.86963 50.773333 50.773333 0 0 0-79.122963-7.86963 50.441481 50.441481 0 0 0-27.591111-8.154074 50.915556 50.915556 0 0 0-49.682963 39.86963 50.915556 50.915556 0 0 0-66.37037 66.844444 50.725926 50.725926 0 1 0 40.296296 30.625185 51.437037 51.437037 0 0 0 6.637037 0.474075 50.962963 50.962963 0 0 0 49.682963-39.822223 50.868148 50.868148 0 0 0 55.845926-11.567407 50.678519 50.678519 0 0 0 55.134815 0 50.820741 50.820741 0 0 0 42.666667 23.277037 48.924444 48.924444 0 0 0 12.136296-1.564444 50.962963 50.962963 0 0 0 29.297778 43.282962 53.522963 53.522963 0 0 0-0.995556 10.050371 50.915556 50.915556 0 1 0 72.391111-46.127408z" fill="#39334C" /><path d="M525.226667 938.998519l-94.435556-163.555556v-147.531852l28.444445 35.223704c33.185185 35.081481 74.571852 36.02963 108.278518 2.56l27.685926-37.925926 3.128889 155.591111z" fill="#FFFFFF" /><path d="M916.906667 934.542222c0-161.185185-150.992593-295.917037-321.801482-306.725926l-83.911111 311.087408s-80.071111-311.087407-80.592593-311.04c-171.235556 10.382222-323.697778 143.36-323.697777 304.734815v6.352592h810.002963z" fill="#FF7157" /><path d="M430.791111 627.863704l-47.691852 132.93037 41.813334 5.546667 86.281481 172.562963-80.402963-311.04zM595.105185 627.816296l51.105185 132.977778-41.813333 5.546667-93.202963 172.562963 83.911111-311.087408z" fill="#FFAFA4" /></svg>