<svg class="svg-icon" style="width: 1em;height: 1em;vertical-align: middle;fill: currentColor;overflow: hidden;" viewBox="0 0 1024 1024" version="1.1" xmlns="http://www.w3.org/2000/svg"><path d="M429.842963 532.195556h164.361481v234.808888H429.842963z" fill="#FFCEAA" /><path d="M429.179259 524.705185l0.711111 59.354074c20.574815 26.500741 67.792593 44.942222 122.88 44.942222a228.740741 228.740741 0 0 0 41.386667-5.594074v-107.946666H438.613333a75.851852 75.851852 0 0 0-9.434074 9.244444z" fill="#FFB888" /><path d="M594.157037 627.437037v10.903704c0 58.500741-27.022222 105.623704-81.445926 105.623703s-82.631111-47.407407-82.631111-105.813333v-10.903704c-171.472593 10.145185-323.508148 143.502222-323.508148 305.01926V938.666667h811.093333v-6.4c0-161.042963-152.699259-294.020741-323.508148-304.82963z" fill="#FFCEAA" /><path d="M346.500741 360.628148c-14.980741 1.517037-29.866667 10.619259-27.401482 41.671111 0 0-2.180741 43.851852 36.693334 55.608889a260.740741 260.740741 0 0 1-10.382223-73.054815c0-8.201481 0.379259-16.260741 1.090371-24.225185zM677.025185 361.054815c0.900741 9.054815 1.422222 18.251852 1.422222 27.638518a266.856296 266.856296 0 0 1-9.007407 69.214815C706.844444 445.62963 704.805926 402.962963 704.805926 402.962963c2.465185-31.478519-12.657778-40.485926-27.780741-41.908148z" fill="#FFB888" /><path d="M677.404444 361.718519c-10.808889-111.312593-85.333333-197.499259-164.93037-197.49926-80.308148 0-156.444444 85.001481-166.21037 197.49926-0.663704 7.964444-1.042963 16.023704-1.042963 24.225185a269.795556 269.795556 0 0 0 10.002963 73.054815c24.414815 86.992593 90.358519 147.531852 158.482963 147.531851 69.072593 0 133.641481-59.97037 156.444444-147.958518a275.768889 275.768889 0 0 0 8.675556-69.262222 310.613333 310.613333 0 0 0-1.422223-27.591111z" fill="#FFCEAA" /><path d="M406.234074 349.582222A46.08 46.08 0 0 1 423.49037 336.592593a53.522963 53.522963 0 0 1 21.475556-4.740741 48.355556 48.355556 0 0 1 21.617778 4.740741 46.222222 46.222222 0 0 1 16.971852 12.989629c-3.555556-0.948148-6.637037-2.465185-9.955556-3.413333a90.927407 90.927407 0 0 0-9.481481-2.654815 76.657778 76.657778 0 0 0-18.962963-2.085926 91.828148 91.828148 0 0 0-18.962963 2.228148 169.813333 169.813333 0 0 0-19.958519 5.925926zM540.444444 349.582222a46.08 46.08 0 0 1 17.066667-12.989629 53.76 53.76 0 0 1 21.522963-4.740741 48.260741 48.260741 0 0 1 21.57037 4.740741 46.222222 46.222222 0 0 1 17.161482 13.037037c-3.555556-0.948148-6.637037-2.465185-9.908148-3.413334a94.151111 94.151111 0 0 0-9.481482-2.654815 77.131852 77.131852 0 0 0-18.962963-2.085925 92.254815 92.254815 0 0 0-19.247407 2.228148 169.813333 169.813333 0 0 0-19.721482 5.878518z" fill="#54393A" /><path d="M511.241481 469.333333a23.22963 23.22963 0 0 1-12.183703-2.939259 16.355556 16.355556 0 0 1-5.12-20.764444c8.722963-18.299259 7.111111-36.551111 5.451852-55.893334v-2.749629l4.74074-0.37926v2.702223c1.754074 20.005926 3.413333 38.874074-5.831111 58.358518a11.662222 11.662222 0 0 0 3.271111 14.743704c6.637037 4.02963 18.725926 1.848889 27.022223-1.232593l1.659259 4.456297a58.88 58.88 0 0 1-19.010371 3.697777z" fill="#E6A996" /><path d="M435.816296 402.014815a24.651852 9.14963 90 1 0 18.29926 0 24.651852 9.14963 90 1 0-18.29926 0Z" fill="#54393A" /><path d="M440.367407 387.271111a2.275556 1.896296 0 1 0 4.551112 0 2.275556 1.896296 0 1 0-4.551112 0Z" fill="#FFFFFF" /><path d="M569.884444 402.014815a24.651852 9.14963 90 1 0 18.29926 0 24.651852 9.14963 90 1 0-18.29926 0Z" fill="#54393A" /><path d="M574.435556 387.271111a2.275556 1.896296 0 1 0 4.551111 0 2.275556 1.896296 0 1 0-4.551111 0Z" fill="#FFFFFF" /><path d="M504.367407 532.811852a50.346667 50.346667 0 0 1-22.66074-4.740741l2.275555-4.171852c0.995556 0.521481 24.414815 12.705185 55.893334-6.637037l2.512592 4.02963a72.106667 72.106667 0 0 1-38.020741 11.52z" fill="#E6A996" /><path d="M637.202963 129.896296a197.783704 197.783704 0 0 0-250.121482 0S281.647407 224.568889 346.88 417.185185c0 0-7.253333-74.097778 15.928889-84.148148 0 0 43.804444-26.263704 31.525926-76.515556A710.494815 710.494815 0 0 0 512 272.545185a710.494815 710.494815 0 0 0 117.807407-16.260741c-12.278519 50.251852 31.478519 76.515556 31.478519 76.515556 23.22963 10.05037 15.976296 84.148148 15.976296 84.148148 65.374815-192.379259-40.059259-287.051852-40.059259-287.051852z" fill="#39334C" /><path d="M275.247407 672V938.666667h473.505186v-265.955556a375.751111 375.751111 0 0 0-94.530371-36.314074 56.13037 56.13037 0 0 1 3.555556 19.342222c0 47.407407-61.62963 85.94963-139.282963 87.988148-1.896296 0-3.792593 0.237037-5.783704 0.237037h-5.404444c-78.317037-1.517037-141.084444-40.343704-141.084445-88.035555a55.703704 55.703704 0 0 1 3.745185-19.816296 373.333333 373.333333 0 0 0-94.72 35.887407z" fill="#8BC8C8" /></svg>