<svg class="svg-icon" style="width: 1em;height: 1em;vertical-align: middle;fill: currentColor;overflow: hidden;" viewBox="0 0 1024 1024" version="1.1" xmlns="http://www.w3.org/2000/svg"><path d="M429.842963 524.894815V621.037037a733.202963 733.202963 0 0 0 82.157037 4.740741 734.814815 734.814815 0 0 0 82.204444-4.740741v-95.762963z" fill="#FFCEAA" /><path d="M512 625.351111a734.814815 734.814815 0 0 0 82.204444-4.740741v138.998519H429.842963V621.037037a733.202963 733.202963 0 0 0 82.157037 4.314074z" fill="#FFCEAA" /><path d="M512 646.542222a734.814815 734.814815 0 0 0 82.204444-4.740741v138.998519H429.842963v-138.903704a733.202963 733.202963 0 0 0 82.157037 4.645926z" fill="#FFCEAA" /><path d="M429.179259 517.451852l0.711111 59.401481c20.574815 26.453333 67.792593 44.894815 122.88 44.894815a233.054815 233.054815 0 0 0 41.386667-5.546667V508.207407H438.613333a83.2 83.2 0 0 0-9.434074 9.244445z" fill="#FFB888" /><path d="M594.157037 620.231111v10.903704c0 58.453333-27.022222 105.576296-81.445926 105.576296s-82.631111-47.407407-82.631111-105.765926v-10.903704c-171.472593 10.145185-323.508148 143.454815-323.508148 305.01926v6.352592h811.093333v-6.352592c0-161.09037-152.699259-294.020741-323.508148-304.82963z" fill="#FFCEAA" /><path d="M346.500741 353.422222c-14.980741 1.517037-29.866667 10.619259-27.401482 41.623704 0 0-2.180741 43.851852 36.693334 55.656296a260.740741 260.740741 0 0 1-10.382223-73.102222c0-8.201481 0.379259-16.260741 1.090371-24.177778zM677.025185 353.848889c0.900741 9.054815 1.422222 18.251852 1.422222 27.591111a267.235556 267.235556 0 0 1-9.007407 69.262222c37.404444-12.420741 35.365926-55.182222 35.365926-55.182222 2.465185-31.241481-12.657778-40.248889-27.780741-41.671111z" fill="#FFB888" /><path d="M677.404444 354.465185c-10.808889-111.265185-85.333333-197.451852-164.93037-197.451852C432.165926 157.013333 355.982222 241.777778 346.074074 354.512593c-0.663704 7.917037-1.042963 15.976296-1.042963 24.177777a269.89037 269.89037 0 0 0 10.192593 73.102223c24.414815 86.992593 90.358519 147.484444 158.482963 147.484444 69.072593 0 133.641481-59.97037 156.444444-147.958518a275.768889 275.768889 0 0 0 8.675556-69.262223 310.613333 310.613333 0 0 0-1.422223-27.591111z" fill="#FFCEAA" /><path d="M406.234074 342.328889a46.08 46.08 0 0 1 17.256296-12.894815 53.475556 53.475556 0 0 1 21.475556-4.740741 48.308148 48.308148 0 0 1 21.617778 4.740741 46.743704 46.743704 0 0 1 16.971852 12.894815c-3.602963-0.948148-6.637037-2.465185-9.955556-3.365926a90.927407 90.927407 0 0 0-9.481481-2.654815 74.477037 74.477037 0 0 0-18.962963-2.085926 88.746667 88.746667 0 0 0-18.962963 2.228148 169.339259 169.339259 0 0 0-19.958519 5.878519zM540.444444 342.328889a46.08 46.08 0 0 1 17.256297-12.894815 53.712593 53.712593 0 0 1 21.522963-4.740741 48.213333 48.213333 0 0 1 21.57037 4.740741 46.743704 46.743704 0 0 1 17.161482 13.037037c-3.555556-0.948148-6.637037-2.465185-9.908149-3.365926a94.151111 94.151111 0 0 0-9.481481-2.654815 74.951111 74.951111 0 0 0-18.962963-2.085926 89.173333 89.173333 0 0 0-19.247407 2.228149 169.339259 169.339259 0 0 0-19.911112 5.736296z" fill="#54393A" /><path d="M511.241481 462.08a23.22963 23.22963 0 0 1-12.183703-2.986667 16.355556 16.355556 0 0 1-5.12-20.811852c8.722963-18.299259 7.111111-36.551111 5.451852-55.845925v-2.74963l4.74074-0.426667v2.74963c1.754074 19.958519 3.413333 38.874074-5.831111 58.311111a11.662222 11.662222 0 0 0 3.271111 14.743704c6.637037 4.02963 18.725926 1.896296 27.022223-1.232593l1.659259 4.456296a58.642963 58.642963 0 0 1-19.010371 3.792593z" fill="#E6A996" /><path d="M435.816296 394.761481a24.651852 9.14963 90 1 0 18.29926 0 24.651852 9.14963 90 1 0-18.29926 0Z" fill="#54393A" /><path d="M440.367407 380.065185a2.275556 1.896296 0 1 0 4.551112 0 2.275556 1.896296 0 1 0-4.551112 0Z" fill="#FFFFFF" /><path d="M569.884444 394.761481a24.651852 9.14963 90 1 0 18.29926 0 24.651852 9.14963 90 1 0-18.29926 0Z" fill="#54393A" /><path d="M574.435556 380.065185a2.275556 1.896296 0 1 0 4.551111 0 2.275556 1.896296 0 1 0-4.551111 0Z" fill="#FFFFFF" /><path d="M504.367407 525.558519a50.346667 50.346667 0 0 1-22.66074-4.740741l2.275555-4.124445c0.995556 0.521481 24.414815 12.657778 55.893334-6.637037l2.512592 4.02963a72.011852 72.011852 0 0 1-38.020741 11.472593z" fill="#E6A996" /><path d="M702.198519 233.955556a182.281481 182.281481 0 0 0-6.494815-32.616297s-0.568889-1.943704-1.754074-5.309629a134.352593 134.352593 0 0 0-20.005926-37.925926 115.531852 115.531852 0 0 0-9.481482-10.808889C649.481481 130.939259 627.626667 101.167407 597.333333 94.814815l18.157037 16.497778L549.925926 78.364444l15.312593 21.475556s-64.379259-21.001481-69.688889-17.73037l18.962963 20.242963s-54.139259-13.937778-104.296297-6.447408L438.376296 113.777778s-64.284444 1.801481-71.111111 7.822222L402.299259 128 341.333333 153.931852l28.965926-0.284445c-12.468148 9.908148-35.128889 31.857778-39.869629 45.937778-16.971852 50.536296-10.477037 106.571852 7.016296 155.970371 5.594074 15.928889 10.002963 59.875556 10.002963 59.922963-4.740741-47.881481 9.197037-91.496296 35.697778-130.844445a13.321481 13.321481 0 0 1 8.817777-6.542222c6.162963-0.711111 14.885926 4.314074 20.954075 5.783704a200.248889 200.248889 0 0 0 24.32 4.077037c15.834074 1.754074 31.81037 2.085926 47.739259 2.56a847.217778 847.217778 0 0 0 91.780741-2.797037 235.70963 235.70963 0 0 0 29.345185-4.456297c7.727407-1.564444 18.157037-6.4 25.884444-4.408889s10.951111 10.192593 14.791111 16.023704a160.853333 160.853333 0 0 1 14.222222 27.259259 208.924444 208.924444 0 0 1 14.222223 93.345186s4.361481-43.994074 10.002963-59.922963c12.847407-36.408889 21.143704-80.592593 16.971852-121.6z" fill="#704F43" /><path d="M595.768889 620.373333c-2.322963 62.814815-38.921481 112.734815-83.768889 112.734815s-81.540741-50.014815-83.816296-112.924444c-170.666667 10.856296-321.848889 143.834074-321.848889 304.877037v6.352592h811.33037v-6.352592c0-160.568889-151.751111-293.167407-321.896296-304.687408z" fill="#F9AF3F" /></svg>