<svg class="svg-icon" style="width: 1em;height: 1em;vertical-align: middle;fill: currentColor;overflow: hidden;" viewBox="0 0 1024 1024" version="1.1" xmlns="http://www.w3.org/2000/svg"><path d="M429.842963 539.496296h164.361481v234.808889H429.842963z" fill="#FFCEAA" /><path d="M429.179259 531.958519l0.711111 59.401481c20.574815 26.453333 67.792593 44.894815 122.88 44.894815a233.054815 233.054815 0 0 0 41.386667-5.546667v-107.994074H438.613333a83.2 83.2 0 0 0-9.434074 9.244445z" fill="#FFB888" /><path d="M594.157037 634.737778v10.903703c0 58.453333-27.022222 105.576296-81.445926 105.576297s-82.631111-47.407407-82.631111-105.765926v-10.903704C258.37037 644.740741 106.334815 778.002963 106.334815 939.567407v6.352593h811.33037v-6.352593c0-161.09037-152.699259-294.020741-323.508148-304.829629z" fill="#3B324E" /><path d="M346.500741 367.928889c-14.980741 1.517037-29.866667 10.619259-27.401482 41.623704 0 0-2.180741 43.851852 36.693334 55.656296a260.740741 260.740741 0 0 1-10.382223-73.102222c0-8.106667 0.379259-16.260741 1.090371-24.177778zM677.025185 368.355556c0.900741 9.054815 1.422222 18.251852 1.422222 27.591111a267.235556 267.235556 0 0 1-9.007407 69.262222c37.404444-12.420741 35.365926-55.182222 35.365926-55.182222 2.465185-31.241481-12.657778-40.248889-27.780741-41.671111z" fill="#FFB888" /><path d="M677.404444 368.971852c-10.808889-111.265185-85.333333-197.451852-164.93037-197.451852-80.308148 0-156.444444 84.954074-166.21037 197.499259-0.663704 7.917037-1.042963 15.976296-1.042963 24.177778a269.89037 269.89037 0 0 0 10.002963 73.102222c24.414815 86.992593 90.358519 147.484444 158.482963 147.484445 69.072593 0 133.641481-59.97037 156.444444-147.958519a275.768889 275.768889 0 0 0 8.675556-69.262222 310.613333 310.613333 0 0 0-1.422223-27.591111z" fill="#FFCEAA" /><path d="M406.234074 356.835556a46.08 46.08 0 0 1 17.256296-12.894815 53.475556 53.475556 0 0 1 21.475556-4.740741 48.308148 48.308148 0 0 1 21.617778 4.740741 46.743704 46.743704 0 0 1 16.971852 12.894815c-3.555556-0.948148-6.637037-2.465185-9.955556-3.365926a90.927407 90.927407 0 0 0-9.481481-2.654815 74.477037 74.477037 0 0 0-18.962963-2.085926 88.746667 88.746667 0 0 0-18.962963 2.228148 169.339259 169.339259 0 0 0-19.958519 5.878519zM540.444444 356.835556a46.08 46.08 0 0 1 17.256297-12.894815 53.712593 53.712593 0 0 1 21.522963-4.740741 48.213333 48.213333 0 0 1 21.57037 4.740741 46.743704 46.743704 0 0 1 17.161482 13.037037c-3.555556-0.948148-6.637037-2.465185-9.908149-3.365926a94.151111 94.151111 0 0 0-9.481481-2.654815 74.951111 74.951111 0 0 0-18.962963-2.085926 89.173333 89.173333 0 0 0-19.247407 2.228148 169.339259 169.339259 0 0 0-19.911112 5.736297z" fill="#54393A" /><path d="M511.241481 476.586667a23.703704 23.703704 0 0 1-12.183703-2.93926 16.402963 16.402963 0 0 1-5.12-20.859259c8.722963-18.299259 7.111111-36.551111 5.451852-55.893333v-2.702222l4.74074-0.426667v2.74963c1.754074 19.958519 3.413333 38.874074-5.831111 58.311111a11.662222 11.662222 0 0 0 3.271111 14.743703c6.637037 4.077037 18.725926 1.896296 27.022223-1.232592l1.659259 4.456296a58.642963 58.642963 0 0 1-19.010371 3.792593z" fill="#E6A996" /><path d="M435.816296 409.268148a24.651852 9.14963 90 1 0 18.29926 0 24.651852 9.14963 90 1 0-18.29926 0Z" fill="#54393A" /><path d="M440.367407 394.571852a2.275556 1.896296 0 1 0 4.551112 0 2.275556 1.896296 0 1 0-4.551112 0Z" fill="#FFFFFF" /><path d="M569.884444 409.268148a24.651852 9.14963 90 1 0 18.29926 0 24.651852 9.14963 90 1 0-18.29926 0Z" fill="#54393A" /><path d="M574.435556 394.571852a2.275556 1.896296 0 1 0 4.551111 0 2.275556 1.896296 0 1 0-4.551111 0Z" fill="#FFFFFF" /><path d="M504.367407 540.065185a50.346667 50.346667 0 0 1-22.66074-4.740741l2.275555-4.124444c0.995556 0.521481 24.414815 12.705185 55.893334-6.637037l2.512592 4.02963a72.011852 72.011852 0 0 1-38.020741 11.472592z" fill="#E6A996" /><path d="M345.220741 417.659259s4.740741-47.407407 8.485926-64.142222c2.844444-12.468148 9.765926-23.277037 13.226666-35.508148a82.773333 82.773333 0 0 0 2.322963-32.521482 74.619259 74.619259 0 0 0 17.445926-16.165926c8.485926-11.377778 13.89037-26.168889 11.188148-26.88 0 0-49.114074-22.328889-47.407407-51.389629 0 0.331852-10.619259 4.740741-11.425185 5.214815a54.85037 54.85037 0 0 0-20.622222 20.622222c-9.813333 18.014815-5.878519 41.576296-3.792593 61.297778 3.081481 29.724444 9.102222 61.961481 20.954074 89.457777 0.237037 0.047407 3.745185 8.059259 9.623704 50.014815z" fill="#704F43" /><path d="M382.957037 240.734815a54.044444 54.044444 0 0 1 12.231111 1.564444c10.42963 1.327407 23.703704-1.659259 33.991111-0.331852 23.703704 3.081481 42.998519 8.817778 68.693334 13.700741a47.028148 47.028148 0 0 0 30.577777-5.12c35.128889-17.777778 94.103704-22.518519 110.885926 22.281482a90.548148 90.548148 0 0 1 4.740741 22.66074c0.995556 10.856296 4.02963 20.66963 12.752593 27.496297 1.232593 0.948148 6.826667 4.02963 7.063703 5.641481l13.037037 90.88 2.891852-47.834074s14.743704-39.917037 14.554074-78.222222a448.047407 448.047407 0 0 0 2.512593-78.127408c-2.038519-32.521481-11.804444-61.866667-35.318519-85.333333-21.617778-21.522963-50.488889-32.047407-79.217777-40.391111a272.971852 272.971852 0 0 0-95.620741-10.998519 217.125926 217.125926 0 0 0-87.561482 24.841482c-25.78963 13.89037-51.721481 32.568889-53.096296 64.426667-0.758519 19.721481 6.068148 76.8 36.882963 72.865185z" fill="#704F43" /><path d="M429.842963 634.548148a335.54963 335.54963 0 0 0-86.471111 15.786667l75.851852 153.125926 81.635555-53.048889s-68.503704-22.85037-71.016296-115.863704zM594.157037 634.737778a343.134815 343.134815 0 0 1 86.328889 16.071111l-75.567407 152.841481-81.635556-53.048889s68.361481-22.85037 70.874074-115.863703z" fill="#FFFFFF" /></svg>