<svg class="svg-icon" style="width: 1em;height: 1em;vertical-align: middle;fill: currentColor;overflow: hidden;" viewBox="0 0 1024 1024" version="1.1" xmlns="http://www.w3.org/2000/svg"><path d="M429.842963 523.52h164.361481v234.808889H429.842963z" fill="#FFCEAA" /><path d="M429.179259 516.02963l0.711111 59.401481C450.37037 602.074074 497.777778 620.325926 552.77037 620.325926a228.740741 228.740741 0 0 0 41.386667-5.594074V506.785185H438.613333a75.851852 75.851852 0 0 0-9.434074 9.244445z" fill="#FFB888" /><path d="M594.157037 618.761481v10.903704c0 58.500741-27.022222 105.623704-81.445926 105.623704s-82.631111-47.407407-82.631111-105.813333v-10.903704c-171.472593 10.145185-323.508148 143.502222-323.508148 305.019259v6.4h811.093333v-6.4c0-161.042963-152.699259-294.020741-323.508148-304.82963z" fill="#FFFFFF" /><path d="M346.500741 351.952593c-14.980741 1.564444-29.866667 10.619259-27.401482 41.671111 0 0-2.180741 43.851852 36.693334 55.608889a260.740741 260.740741 0 0 1-10.382223-73.054815c0-8.201481 0.379259-16.260741 1.090371-24.225185zM677.025185 352.426667c0.900741 9.007407 1.422222 18.204444 1.422222 27.591111a266.571852 266.571852 0 0 1-9.007407 69.214815c37.404444-12.373333 35.365926-55.182222 35.365926-55.182223 2.465185-31.241481-12.657778-40.248889-27.780741-41.623703z" fill="#FFB888" /><path d="M677.404444 353.042963c-10.808889-111.265185-85.333333-197.499259-164.93037-197.499259-80.308148 0-156.444444 85.001481-166.21037 197.499259-0.663704 7.964444-1.042963 16.023704-1.042963 24.225185A269.795556 269.795556 0 0 0 355.223704 450.37037c24.414815 86.992593 90.358519 147.531852 158.482963 147.531852 69.072593 0 133.641481-59.97037 156.444444-147.958518a275.768889 275.768889 0 0 0 8.675556-69.262223 310.755556 310.755556 0 0 0-1.422223-27.638518z" fill="#FFCEAA" /><path d="M406.234074 340.906667a46.08 46.08 0 0 1 17.256296-12.894815 53.522963 53.522963 0 0 1 21.475556-4.740741 48.355556 48.355556 0 0 1 21.617778 4.740741 46.222222 46.222222 0 0 1 16.971852 12.894815c-3.555556-0.948148-6.637037-2.465185-9.955556-3.413334s-6.352593-2.085926-9.481481-2.654814a76.657778 76.657778 0 0 0-18.962963-2.085926 91.828148 91.828148 0 0 0-18.962963 2.228148 169.813333 169.813333 0 0 0-19.958519 5.925926zM540.444444 340.906667a46.08 46.08 0 0 1 17.256297-12.894815 53.76 53.76 0 0 1 21.522963-4.740741 48.260741 48.260741 0 0 1 21.57037 4.740741 46.222222 46.222222 0 0 1 17.161482 13.037037c-3.555556-0.948148-6.637037-2.465185-9.908149-3.413333s-6.4-2.085926-9.481481-2.654815a77.131852 77.131852 0 0 0-18.962963-2.085926 92.254815 92.254815 0 0 0-19.247407 2.228148 169.813333 169.813333 0 0 0-19.911112 5.783704z" fill="#54393A" /><path d="M511.241481 460.61037a23.22963 23.22963 0 0 1-12.183703-2.939259 16.355556 16.355556 0 0 1-5.12-20.811852c8.722963-18.299259 7.111111-36.551111 5.451852-55.893333v-2.74963l4.74074-0.379259v2.702222c1.754074 20.005926 3.413333 38.874074-5.831111 58.358519a11.662222 11.662222 0 0 0 3.271111 14.743703c6.637037 4.02963 18.725926 1.848889 27.022223-1.232592l1.659259 4.456296a58.88 58.88 0 0 1-19.010371 3.745185z" fill="#E6A996" /><path d="M435.816296 393.339259a24.651852 9.14963 90 1 0 18.29926 0 24.651852 9.14963 90 1 0-18.29926 0Z" fill="#54393A" /><path d="M440.367407 378.595556a2.275556 1.896296 0 1 0 4.551112 0 2.275556 1.896296 0 1 0-4.551112 0Z" fill="#FFFFFF" /><path d="M569.884444 393.339259a24.651852 9.14963 90 1 0 18.29926 0 24.651852 9.14963 90 1 0-18.29926 0Z" fill="#54393A" /><path d="M574.435556 378.595556a2.275556 1.896296 0 1 0 4.551111 0 2.275556 1.896296 0 1 0-4.551111 0Z" fill="#FFFFFF" /><path d="M504.367407 524.136296a50.346667 50.346667 0 0 1-22.66074-4.74074l2.275555-4.171852c0.995556 0.521481 24.414815 12.705185 55.893334-6.637037l2.512592 4.077037a72.438519 72.438519 0 0 1-38.020741 11.472592z" fill="#E6A996" /><path d="M492.562963 262.921481c-16.592593 0-33.185185 0.379259-49.635556 1.327408-9.481481 0.568889-19.342222 1.28-28.965926 2.228148-16.260741 1.611852-30.340741 4.740741-44.752592-5.594074a83.437037 83.437037 0 0 1-26.405926-35.792593 152.272593 152.272593 0 0 1-12.420741-67.982222 56.035556 56.035556 0 0 1 10.382222-30.435555c14.222222-18.962963 41.244444-23.419259 63.241482-26.974815A438.708148 438.708148 0 0 1 459.851852 94.293333a396.657778 396.657778 0 0 1 121.125926 13.131852c48.82963 13.748148 96.758519 42.24 117.475555 90.642963a129.801481 129.801481 0 0 1 6.4 18.536296 18.962963 18.962963 0 0 1-5.925926 18.962963l-0.331851 0.284445a96.711111 96.711111 0 0 1-52.527408 23.703704c-50.820741 5.925926-102.257778 3.271111-153.505185 3.365925z" fill="#39334C" /><path d="M347.164444 405.854815l-1.09037-3.745185c-7.395556-26.974815-49.682963-193.611852 15.407407-246.518519a6.352593 6.352593 0 0 1 9.481482 1.611852L408.651852 218.074074a6.447407 6.447407 0 0 1-0.948148 7.727407l-27.733334 29.392593a6.352593 6.352593 0 0 0-1.469629 5.546667l2.085926 25.505185a54.802963 54.802963 0 0 1-1.46963 18.962963 36.361481 36.361481 0 0 1-18.962963 24.035555 6.352593 6.352593 0 0 0-5.167407 5.594075zM677.499259 405.854815s0.379259-1.327407 0.995556-3.745185c7.395556-26.974815 49.682963-193.611852-15.36-246.518519a6.447407 6.447407 0 0 0-9.481482 1.611852L615.964444 218.074074a6.352593 6.352593 0 0 0 0.805926 7.727407l27.733334 29.392593a6.305185 6.305185 0 0 1 1.611852 5.499259l-2.085926 25.505186a54.802963 54.802963 0 0 0 1.517037 18.962962 36.077037 36.077037 0 0 0 19.2 24.035556 6.4 6.4 0 0 1 5.167407 5.594074z" fill="#39334C" /><path d="M470.708148 766.103704v163.887407H106.334815v-6.352592c0-161.564444 152.035556-294.874074 323.508148-305.01926V632.225185h-29.487407v133.878519zM917.665185 923.638519v6.352592h-364.373333V766.103704h81.398518v-133.878519h-40.58074v-2.512592-10.903704c170.856296 10.808889 323.555556 143.739259 323.555555 304.82963z" fill="#8BC8C8" /><path d="M429.842963 618.571852a336.877037 336.877037 0 0 0-86.471111 15.834074l45.700741 184.367407 81.635555-53.048889s-38.352593-54.139259-40.865185-147.152592zM594.157037 618.761481a344.557037 344.557037 0 0 1 86.328889 16.118519l-45.558519 183.893333-81.635555-53.048889s38.352593-53.94963 40.865185-146.962963z" fill="#CCDBDA" /><path d="M448.568889 827.543704m-7.111111 0a7.111111 7.111111 0 1 0 14.222222 0 7.111111 7.111111 0 1 0-14.222222 0Z" fill="#FFFFFF" /><path d="M448.568889 895.051852m-7.111111 0a7.111111 7.111111 0 1 0 14.222222 0 7.111111 7.111111 0 1 0-14.222222 0Z" fill="#FFFFFF" /></svg>